<svg xmlns="http://www.w3.org/2000/svg" viewBox="0 0 76.68 86.5"><defs><style>.cls-1{fill:#27ef21;}</style></defs><g id="Capa_2" data-name="Capa 2"><g id="Capa_1-2" data-name="Capa 1"><g id="Grupo_87" data-name="Grupo 87"><g id="Grupo_74" data-name="Grupo 74"><g id="Grupo_73" data-name="Grupo 73"><g id="Grupo_71" data-name="Grupo 71"><path id="Trazado_230" data-name="Trazado 230" class="cls-1" d="M38.33,84.07A8.06,8.06,0,0,1,34.21,83l-28-16.63a7,7,0,0,1-3.56-6V26.21a7,7,0,0,1,3.56-6L34.21,3.54a8.2,8.2,0,0,1,8.24,0L70.5,20.18a7,7,0,0,1,3.56,6V60.29a7,7,0,0,1-3.56,6L42.45,83A8.06,8.06,0,0,1,38.33,84.07ZM37.08,7.75,9,24.38A2.13,2.13,0,0,0,8,26.21V60.29A2.13,2.13,0,0,0,9,62.12L37.08,78.75a2.5,2.5,0,0,0,2.51,0l28-16.63a2.12,2.12,0,0,0,1.09-1.83V26.21a2.12,2.12,0,0,0-1.09-1.83l-28-16.63a2.5,2.5,0,0,0-2.51,0Z"/></g><g id="Grupo_72" data-name="Grupo 72"><path id="Trazado_231" data-name="Trazado 231" class="cls-1" d="M38.33,86.5A10.74,10.74,0,0,1,32.81,85L4.76,68.38A9.41,9.41,0,0,1,0,60.29V26.21a9.42,9.42,0,0,1,4.76-8.09L32.81,1.49a11,11,0,0,1,11,0l28,16.63a9.41,9.41,0,0,1,4.77,8.09V60.29a9.4,9.4,0,0,1-4.77,8.09L43.85,85A10.74,10.74,0,0,1,38.33,86.5Zm0-81.64a5.36,5.36,0,0,0-2.73.74l-28,16.63a4.63,4.63,0,0,0-2.35,4V60.29a4.63,4.63,0,0,0,2.35,4L35.6,80.9a5.49,5.49,0,0,0,5.46,0L69.11,64.27a4.63,4.63,0,0,0,2.35-4V26.21a4.63,4.63,0,0,0-2.35-4L41.06,5.6a5.36,5.36,0,0,0-2.73-.74Zm0,76.66a5.16,5.16,0,0,1-2.65-.71l-28-16.63a4.5,4.5,0,0,1-2.29-3.89V26.21a4.47,4.47,0,0,1,2.29-3.88l28-16.63A5.22,5.22,0,0,1,41,5.7L69,22.33a4.47,4.47,0,0,1,2.29,3.88V60.29A4.52,4.52,0,0,1,69,64.18L41,80.81a5.16,5.16,0,0,1-2.65.71ZM10.55,60.15,38.33,76.62,66.11,60.15V26.36L38.33,9.88,10.55,26.36Z"/></g></g></g><g id="Grupo_78" data-name="Grupo 78"><g id="Grupo_77" data-name="Grupo 77"><g id="Grupo_75" data-name="Grupo 75"><path id="Trazado_232" data-name="Trazado 232" class="cls-1" d="M30.09,60.09a2.73,2.73,0,0,1-2.27-1.17,2.4,2.4,0,0,1,.68-3.33,1,1,0,0,1,.17-.1L70,31.47a2.78,2.78,0,0,1,3.68.8A2.4,2.4,0,0,1,73,35.59l-.18.11-41.32,24A2.79,2.79,0,0,1,30.09,60.09Z"/></g><g id="Grupo_76" data-name="Grupo 76"><path id="Trazado_233" data-name="Trazado 233" class="cls-1" d="M30.09,62.52a5.35,5.35,0,0,1-4.48-2.31A4.62,4.62,0,0,1,25,56.49a4.92,4.92,0,0,1,2.35-3.07l41.32-24A5.5,5.5,0,0,1,75.88,31a4.62,4.62,0,0,1,.66,3.72,4.92,4.92,0,0,1-2.35,3.07l-41.32,24A5.51,5.51,0,0,1,30.09,62.52ZM70,31.47l1.37,2.07-41.31,24,0,.11h0l41.32-24Z"/></g></g></g><g id="Grupo_82" data-name="Grupo 82"><g id="Grupo_81" data-name="Grupo 81"><g id="Grupo_79" data-name="Grupo 79"><path id="Trazado_234" data-name="Trazado 234" class="cls-1" d="M29.36,79.2h0a2.58,2.58,0,0,1-2.66-2.5l.23-51.56a2.59,2.59,0,0,1,2.67-2.48h0a2.58,2.58,0,0,1,2.67,2.5L32,76.72A2.59,2.59,0,0,1,29.36,79.2Z"/></g><g id="Grupo_80" data-name="Grupo 80"><path id="Trazado_235" data-name="Trazado 235" class="cls-1" d="M29.36,81.64h0a5.5,5.5,0,0,1-3.73-1.46,4.74,4.74,0,0,1-1.53-3.49l.23-51.56a5.29,5.29,0,0,1,10.55,0l-.23,51.56A5.13,5.13,0,0,1,29.36,81.64Zm.15-56.49-.23,51.56.08.06a.06.06,0,0,0,.07-.06l.23-51.56Z"/></g></g></g><g id="Grupo_86" data-name="Grupo 86"><g id="Grupo_85" data-name="Grupo 85"><g id="Grupo_83" data-name="Grupo 83"><path id="Trazado_236" data-name="Trazado 236" class="cls-1" d="M56.65,43.77a2.85,2.85,0,0,1-1.45-.4L15.48,19.59a2.39,2.39,0,0,1-.92-3.26,1.88,1.88,0,0,1,.12-.18,2.79,2.79,0,0,1,3.7-.75L58.1,39.18A2.39,2.39,0,0,1,59,42.43l-.12.19A2.73,2.73,0,0,1,56.65,43.77Z"/></g><g id="Grupo_84" data-name="Grupo 84"><path id="Trazado_237" data-name="Trazado 237" class="cls-1" d="M56.65,46.2a5.39,5.39,0,0,1-2.85-.78L14.08,21.65a5,5,0,0,1-2.31-3.1,4.61,4.61,0,0,1,.72-3.71,5.5,5.5,0,0,1,7.28-1.48L59.5,37.14a4.88,4.88,0,0,1,2.31,3.1A4.62,4.62,0,0,1,61.09,44,5.35,5.35,0,0,1,56.65,46.2ZM17,17.45l-.11.06,39.8,23.83a.09.09,0,0,0,.07,0Z"/></g></g></g></g></g></g></svg>