<svg xmlns="http://www.w3.org/2000/svg" viewBox="0 0 321.8 74.36"><defs><style>.cls-1{fill:#051122;}.cls-2{fill:#67b32e;}</style></defs><g id="Capa_2" data-name="Capa 2"><g id="Capa_1-2" data-name="Capa 1"><g id="Grupo_65" data-name="Grupo 65"><g id="Grupo_47" data-name="Grupo 47"><path id="Trazado_149" data-name="Trazado 149" class="cls-1" d="M103,42.73a5.34,5.34,0,0,1,1.63,3.88,5.58,5.58,0,0,1-1.63,4,5.46,5.46,0,0,1-3.88,1.55,5.7,5.7,0,0,1-4-1.55L78.66,33.77v12.8a5.27,5.27,0,0,1-1.6,3.87,5.65,5.65,0,0,1-7.86,0,5.19,5.19,0,0,1-1.63-3.87V5.49A5.21,5.21,0,0,1,69.2,1.66,5.52,5.52,0,0,1,77,1.6a5.58,5.58,0,0,1,1.65,3.89v12.8L95.2,1.66a5.54,5.54,0,0,1,4-1.63A5.47,5.47,0,0,1,103,9.4L86.4,26Z"/><path id="Trazado_150" data-name="Trazado 150" class="cls-1" d="M130.9,12.66a19,19,0,0,1,6.89,2.12,19.41,19.41,0,0,1,5.54,4.36,20.76,20.76,0,0,1,3.67,6,19.13,19.13,0,0,1,1.35,7.13V46.73a5,5,0,0,1-1.63,3.75,5.22,5.22,0,0,1-7.39,0,5.32,5.32,0,0,1-.85-1.09,5,5,0,0,0-.73.36c-.21.13-.43.26-.65.37a21.74,21.74,0,0,1-4,1.38,19.28,19.28,0,0,1-4.48.49,18.75,18.75,0,0,1-10.92-3.3,20.24,20.24,0,0,1-7.17-8.51,21.77,21.77,0,0,1-1.27-3.83,18.72,18.72,0,0,1,0-8.16,21.77,21.77,0,0,1,1.27-3.83,20,20,0,0,1,7.17-8.56,19.1,19.1,0,0,1,10.92-3.26h1.18A8,8,0,0,1,130.9,12.66Zm-2.36,28.78a9.31,9.31,0,0,0,3.54-.7,8.69,8.69,0,0,0,2.9-1.92,9.33,9.33,0,0,0,2-2.89,8.87,8.87,0,0,0,.74-3.63,8.44,8.44,0,0,0-.74-3.46A9.5,9.5,0,0,0,132,23.91a8.44,8.44,0,0,0-3.46-.74,8.22,8.22,0,0,0-3.42.74,9.66,9.66,0,0,0-4.9,4.93,8.6,8.6,0,0,0-.73,3.47,8.33,8.33,0,0,0,.77,3.54,9.48,9.48,0,0,0,2,2.89,10,10,0,0,0,2.89,2,8,8,0,0,0,3.35.73Z"/><path id="Trazado_151" data-name="Trazado 151" class="cls-1" d="M172.39,12.33a20.24,20.24,0,0,1,7.5,1.43,19.46,19.46,0,0,1,6.28,4,20.14,20.14,0,0,1,4.32,6.07,17.9,17.9,0,0,1,1.63,7.59V46.49a5.08,5.08,0,0,1-1.51,3.66,5.23,5.23,0,0,1-3.71,1.63,5.47,5.47,0,0,1-3.79-1.42,4.68,4.68,0,0,1-1.59-3.63V32.06a9.2,9.2,0,0,0-.69-3.55,8.51,8.51,0,0,0-2-2.89,10,10,0,0,0-2.93-2,9.06,9.06,0,0,0-3.63-.73,8.71,8.71,0,0,0-3.42.69A9.9,9.9,0,0,0,166,25.45a8.58,8.58,0,0,0-1.95,2.78,8.22,8.22,0,0,0-.74,3.42V46.49a5,5,0,0,1-1.63,3.7A5.18,5.18,0,0,1,158,51.78a5.45,5.45,0,0,1-3.76-1.46,4.7,4.7,0,0,1-1.63-3.59V32.06a20.78,20.78,0,0,1,1.59-7.66,19.72,19.72,0,0,1,4.16-6.28,19.44,19.44,0,0,1,14.06-5.79Z"/><path id="Trazado_152" data-name="Trazado 152" class="cls-1" d="M201.74,0a4.18,4.18,0,0,1,2,.37,6.79,6.79,0,0,1,1.76,1.18,4.92,4.92,0,0,1,1.18,1.76,5.65,5.65,0,0,1,.4,2.07v9.38A19,19,0,0,1,213,12.86a20.65,20.65,0,0,1,6.08,0A21,21,0,0,1,225,14.65a18.86,18.86,0,0,1,9.58,10A19.68,19.68,0,0,1,236,32.3,18.68,18.68,0,0,1,234.38,40a20.59,20.59,0,0,1-4.28,6.28,20,20,0,0,1-6.27,4.24A18.87,18.87,0,0,1,216.24,52a18.29,18.29,0,0,1-7.5-1.58,20.94,20.94,0,0,1-10.68-10.56,18.2,18.2,0,0,1-1.63-7.58V5a4.23,4.23,0,0,1,.49-1.91,6.14,6.14,0,0,1,1.23-1.63,5.63,5.63,0,0,1,1.67-1.1A4,4,0,0,1,201.74,0Zm5.37,32.28a8.86,8.86,0,0,0,.74,3.55,9,9,0,0,0,2,2.89,9.89,9.89,0,0,0,2.9,2,8.42,8.42,0,0,0,3.5.73,8.59,8.59,0,0,0,3.46-.73,10,10,0,0,0,2.94-2,8.94,8.94,0,0,0,2-10,9.23,9.23,0,0,0-2-2.9,10,10,0,0,0-2.94-1.95,8.44,8.44,0,0,0-3.46-.74,8.13,8.13,0,0,0-3.5.78,10,10,0,0,0-2.9,2,9.31,9.31,0,0,0-2,2.93,8.22,8.22,0,0,0-.73,3.38Z"/><path id="Trazado_153" data-name="Trazado 153" class="cls-1" d="M260.58,12.66a19,19,0,0,1,6.89,2.12A19.41,19.41,0,0,1,273,19.14a20.76,20.76,0,0,1,3.67,6A19.13,19.13,0,0,1,278,32.31V46.73a5,5,0,0,1-1.63,3.75,5.22,5.22,0,0,1-7.39,0,5.32,5.32,0,0,1-.85-1.09,5,5,0,0,0-.73.36c-.21.13-.43.26-.65.37a21.49,21.49,0,0,1-4,1.38,19.28,19.28,0,0,1-4.48.49,18.75,18.75,0,0,1-10.92-3.3,20.24,20.24,0,0,1-7.17-8.51,21.77,21.77,0,0,1-1.27-3.83,18.72,18.72,0,0,1,0-8.16,21.77,21.77,0,0,1,1.27-3.83,20,20,0,0,1,7.17-8.56,19.1,19.1,0,0,1,10.92-3.26h1.18A8,8,0,0,1,260.58,12.66Zm-2.36,28.78a9.4,9.4,0,0,0,3.55-.7,8.75,8.75,0,0,0,2.89-1.92,9.36,9.36,0,0,0,2-2.89,9,9,0,0,0,.73-3.63,8.59,8.59,0,0,0-.73-3.46,9.52,9.52,0,0,0-4.94-4.93,8.44,8.44,0,0,0-3.46-.74,8.22,8.22,0,0,0-3.42.74,9.66,9.66,0,0,0-4.9,4.93,8.6,8.6,0,0,0-.73,3.47,8.33,8.33,0,0,0,.77,3.54,9.78,9.78,0,0,0,2,2.89,9.89,9.89,0,0,0,2.9,2,8,8,0,0,0,3.34.73Z"/><path id="Trazado_154" data-name="Trazado 154" class="cls-1" d="M302.07,12.33a20.24,20.24,0,0,1,7.5,1.43,19.46,19.46,0,0,1,6.28,4,20.14,20.14,0,0,1,4.32,6.07,17.9,17.9,0,0,1,1.63,7.59V46.49a5.08,5.08,0,0,1-1.51,3.66,5.21,5.21,0,0,1-3.71,1.63,5.47,5.47,0,0,1-3.79-1.42,4.71,4.71,0,0,1-1.59-3.63V32.06a9.2,9.2,0,0,0-.69-3.55,8.51,8.51,0,0,0-2-2.89,9.84,9.84,0,0,0-2.93-2,9.06,9.06,0,0,0-3.63-.73,8.74,8.74,0,0,0-3.42.69,9.9,9.9,0,0,0-2.86,1.83,8.58,8.58,0,0,0-1.95,2.78,8.06,8.06,0,0,0-.73,3.42V46.49a5,5,0,0,1-1.63,3.7,5.22,5.22,0,0,1-3.75,1.59,5.4,5.4,0,0,1-3.75-1.46,4.64,4.64,0,0,1-1.63-3.59V32.06a20.57,20.57,0,0,1,1.58-7.66A20.06,20.06,0,0,1,288,18.12a19.44,19.44,0,0,1,14.06-5.79Z"/></g><g id="Grupo_48" data-name="Grupo 48"><path id="Trazado_155" data-name="Trazado 155" class="cls-1" d="M73.08,55.63a5.12,5.12,0,0,1,2,.41,5.45,5.45,0,0,1,1.73,1.15A5.61,5.61,0,0,1,78,58.89a4.9,4.9,0,0,1,.45,2.1v4.37a4.91,4.91,0,0,1-.44,2,5.85,5.85,0,0,1-1.17,1.71,5.45,5.45,0,0,1-1.71,1.18,5.05,5.05,0,0,1-2.06.44H69.86a1.62,1.62,0,0,1-1.12-.46,1.51,1.51,0,0,1-.48-1.15V57.23a1.57,1.57,0,0,1,.46-1.11,1.49,1.49,0,0,1,1.14-.5Zm-1.63,3.21v8.67h1.63a2.08,2.08,0,0,0,.85-.17,2,2,0,0,0,.7-.46,2.15,2.15,0,0,0,.46-.68,2.2,2.2,0,0,0,.16-.84V61a2.2,2.2,0,0,0-.16-.84,2.27,2.27,0,0,0-.46-.68,2,2,0,0,0-.7-.46,2.26,2.26,0,0,0-.85-.17Z"/><path id="Trazado_156" data-name="Trazado 156" class="cls-1" d="M81.27,55.75a1.35,1.35,0,0,1,1,.46,1.53,1.53,0,0,1,0,2.15,1.44,1.44,0,0,1-1,.46,1.68,1.68,0,0,1-1.12-.44,1.54,1.54,0,0,1-.44-1.17,1.45,1.45,0,0,1,.49-1A1.52,1.52,0,0,1,81.27,55.75Zm0,3.61a1.35,1.35,0,0,1,1,.45,1.76,1.76,0,0,1,.46,1.09v8.36a1.5,1.5,0,0,1-.4,1.06,1.6,1.6,0,0,1-1.09.47,1.53,1.53,0,0,1-1-.37,1.68,1.68,0,0,1-.52-1.07V60.8a1.49,1.49,0,0,1,.5-1,1.62,1.62,0,0,1,1.06-.43Z"/><path id="Trazado_157" data-name="Trazado 157" class="cls-1" d="M91.76,59.24a1.32,1.32,0,0,1,1.06.49,1.52,1.52,0,0,1,.43,1,1.5,1.5,0,0,1-.46,1.07,1.41,1.41,0,0,1-1,.46H87.7a.55.55,0,0,0-.59.5v.07a.56.56,0,0,0,.15.41.55.55,0,0,0,.44.18h2.67a3.15,3.15,0,0,1,1.35.29,3.62,3.62,0,0,1,1.09.8,3.89,3.89,0,0,1,.72,1.16,3.7,3.7,0,0,1,.26,1.36,3.75,3.75,0,0,1-.28,1.48,3.6,3.6,0,0,1-.78,1.15,3.52,3.52,0,0,1-1.18.76,3.92,3.92,0,0,1-1.51.27H86a1.42,1.42,0,0,1-1-.43,1.49,1.49,0,0,1-.42-1.08A1.61,1.61,0,0,1,85,68.13a1.4,1.4,0,0,1,1-.5h4q.63,0,.63-.57T90,66.52h-2.6a3.09,3.09,0,0,1-1.34-.3A3.39,3.39,0,0,1,85,65.43a3.79,3.79,0,0,1-.73-1.16A4,4,0,0,1,84,62.85a3.71,3.71,0,0,1,1-2.5,3.58,3.58,0,0,1,2.51-1.11Z"/><path id="Trazado_158" data-name="Trazado 158" class="cls-1" d="M100.57,59.29a5.23,5.23,0,0,1,2.17.47A6.26,6.26,0,0,1,104.57,61a6.09,6.09,0,0,1,1.27,1.82,5.15,5.15,0,0,1,.47,2.16,1.51,1.51,0,0,1-.46,1.08,1.46,1.46,0,0,1-1.15.45H98.42a2.67,2.67,0,0,0,2.79,1,3.43,3.43,0,0,0,.45-.16,3.42,3.42,0,0,1,.4-.17,1.47,1.47,0,0,1,.46-.07,1.6,1.6,0,0,1,1.41.93,1.52,1.52,0,0,1,.12.84,1.56,1.56,0,0,1-.41.83,3.82,3.82,0,0,1-1.42.72,7.13,7.13,0,0,1-1.66.22,4.77,4.77,0,0,1-2.17-.41,5.93,5.93,0,0,1-3.08-3.11,5.36,5.36,0,0,1-.46-2.2,5.16,5.16,0,0,1,.46-2.15A6.17,6.17,0,0,1,96.55,61a5.88,5.88,0,0,1,1.82-1.26A5.37,5.37,0,0,1,100.57,59.29Zm2.15,4.16a2.89,2.89,0,0,0-1-.79,2.59,2.59,0,0,0-2.42,0,3.21,3.21,0,0,0-.93.79Z"/><path id="Trazado_159" data-name="Trazado 159" class="cls-1" d="M113.07,59.22a6,6,0,0,1,2.17.41,5.63,5.63,0,0,1,3.07,2.92,5.06,5.06,0,0,1,.47,2.2v4.37a1.45,1.45,0,0,1-.43,1.06,1.54,1.54,0,0,1-1.08.48,1.59,1.59,0,0,1-1.1-.42,1.35,1.35,0,0,1-.46-1V64.94a2.82,2.82,0,0,0-.2-1,2.5,2.5,0,0,0-.57-.84,2.67,2.67,0,0,0-.85-.56,2.54,2.54,0,0,0-1-.22,2.57,2.57,0,0,0-1,.2,2.7,2.7,0,0,0-.83.54,2.45,2.45,0,0,0-.78,1.79v4.3a1.44,1.44,0,0,1-.47,1.07,1.5,1.5,0,0,1-1.09.46,1.59,1.59,0,0,1-1.09-.42,1.37,1.37,0,0,1-.47-1V64.94a6,6,0,0,1,.46-2.22,5.67,5.67,0,0,1,5.28-3.5Zm4.15-3.4a.86.86,0,0,1,.36.6.93.93,0,0,1-.17.67,3.17,3.17,0,0,1-1,.93,3.43,3.43,0,0,1-1.24.45,3.39,3.39,0,0,1-1.27,0,2.92,2.92,0,0,1-1.16-.53,1.82,1.82,0,0,0-1.35-.39,1.59,1.59,0,0,0-1.11.62.82.82,0,0,1-.57.37.84.84,0,0,1-.68-.18.9.9,0,0,1-.36-.6.81.81,0,0,1,.17-.67,3.27,3.27,0,0,1,1-.93,3.42,3.42,0,0,1,2.58-.37,3.38,3.38,0,0,1,1.24.59,1.48,1.48,0,0,0,1.2.29A1.59,1.59,0,0,0,116,56a.84.84,0,0,1,.59-.36,1,1,0,0,1,.68.17Z"/><path id="Trazado_160" data-name="Trazado 160" class="cls-1" d="M125.7,59.5a5.52,5.52,0,0,1,2.2.45A5.85,5.85,0,0,1,131,63a5.68,5.68,0,0,1,0,4.45,6,6,0,0,1-1.21,1.81,5.66,5.66,0,0,1-4,1.68,5.86,5.86,0,0,1-2.23-.43,5.74,5.74,0,0,1-3-7.48,5.57,5.57,0,0,1,1.2-1.8A5.76,5.76,0,0,1,123.45,60,6.2,6.2,0,0,1,125.7,59.5Zm0,3.1a2.5,2.5,0,0,0-1,.2,2.78,2.78,0,0,0-.84.55,2.6,2.6,0,0,0-.79,1.89,2.41,2.41,0,0,0,.21,1,2.62,2.62,0,0,0,.58.85,2.74,2.74,0,0,0,.84.58,2.5,2.5,0,0,0,1,.21,2.56,2.56,0,0,0,1-.21,2.69,2.69,0,0,0,.84-.58,3,3,0,0,0,.57-.85,2.56,2.56,0,0,0,.21-1,2.75,2.75,0,0,0-.78-1.84A2.67,2.67,0,0,0,125.7,62.6Z"/><path id="Trazado_161" data-name="Trazado 161" class="cls-1" d="M138.57,59.26a1.64,1.64,0,0,1,1.08.4,1.3,1.3,0,0,1,.48,1V65a2.6,2.6,0,0,0,.76,1.84,2.84,2.84,0,0,0,.84.57,2.7,2.7,0,0,0,1.05.21,2.55,2.55,0,0,0,1-.19,2.86,2.86,0,0,0,.85-.52,2.56,2.56,0,0,0,.59-.79,2.18,2.18,0,0,0,.22-1V60.77a1.52,1.52,0,0,1,1.51-1.51h0a1.63,1.63,0,0,1,1.09.42,1.33,1.33,0,0,1,.47,1V72.84a1.37,1.37,0,0,1-.47,1,1.6,1.6,0,0,1-1.09.43,1.49,1.49,0,0,1-1.06-.43,1.43,1.43,0,0,1-.48-1.11V70.06a3.92,3.92,0,0,1-1.24.49,6.59,6.59,0,0,1-1.4.15,5.35,5.35,0,0,1-2.2-.45A5.57,5.57,0,0,1,138.75,69a5.66,5.66,0,0,1-1.25-1.85,5.74,5.74,0,0,1-.47-2.35v-4a1.52,1.52,0,0,1,1.51-1.51h0Z"/><path id="Trazado_162" data-name="Trazado 162" class="cls-1" d="M160.12,55.63a5.12,5.12,0,0,1,2,.41,5.45,5.45,0,0,1,1.73,1.15,5.61,5.61,0,0,1,1.19,1.7,4.9,4.9,0,0,1,.45,2.1v4.37a4.91,4.91,0,0,1-.44,2,6,6,0,0,1-1.16,1.71,5.61,5.61,0,0,1-1.72,1.18,5.05,5.05,0,0,1-2.06.44H156.9a1.57,1.57,0,0,1-1.12-.46,1.51,1.51,0,0,1-.48-1.15V57.23a1.57,1.57,0,0,1,.46-1.11,1.51,1.51,0,0,1,1.14-.5Zm-1.63,3.21v8.67h1.63a2.26,2.26,0,0,0,.85-.17,2,2,0,0,0,.7-.46,2.15,2.15,0,0,0,.46-.68,2.2,2.2,0,0,0,.16-.84V61a2.2,2.2,0,0,0-.16-.84,2.27,2.27,0,0,0-.46-.68A2,2,0,0,0,161,59a2.26,2.26,0,0,0-.85-.17Z"/><path id="Trazado_163" data-name="Trazado 163" class="cls-1" d="M172.28,59.29a5.23,5.23,0,0,1,2.17.47A6.18,6.18,0,0,1,176.29,61a6.24,6.24,0,0,1,1.26,1.82A5.15,5.15,0,0,1,178,65a1.51,1.51,0,0,1-.46,1.08,1.46,1.46,0,0,1-1.15.45h-6.28a2.68,2.68,0,0,0,2.79,1,3.57,3.57,0,0,0,.46-.16,2.83,2.83,0,0,1,.4-.17,1.43,1.43,0,0,1,.46-.07,1.62,1.62,0,0,1,1.41.93,1.51,1.51,0,0,1,.11.84,1.49,1.49,0,0,1-.41.83,3.75,3.75,0,0,1-1.42.72,7,7,0,0,1-1.65.22,4.75,4.75,0,0,1-2.17-.41A6,6,0,0,1,167,67.2a5.53,5.53,0,0,1-.46-2.2,5.32,5.32,0,0,1,.46-2.15,6,6,0,0,1,3.06-3.09A5.37,5.37,0,0,1,172.28,59.29Zm2.15,4.16a3,3,0,0,0-.94-.79,2.44,2.44,0,0,0-1.21-.3,2.34,2.34,0,0,0-1.21.3,3.25,3.25,0,0,0-.94.79Z"/><path id="Trazado_164" data-name="Trazado 164" class="cls-1" d="M186.72,59.24a1.35,1.35,0,0,1,1.06.49,1.51,1.51,0,0,1,.42,1,1.42,1.42,0,0,1-.46,1.07,1.37,1.37,0,0,1-1,.46h-4.07a.55.55,0,0,0-.59.5v.07a.57.57,0,0,0,.16.41.55.55,0,0,0,.43.18h2.67a3.2,3.2,0,0,1,1.36.29,3.57,3.57,0,0,1,1.09.8,4.1,4.1,0,0,1,.72,1.16,3.7,3.7,0,0,1,.26,1.36,3.76,3.76,0,0,1-.29,1.48,3.45,3.45,0,0,1-.78,1.15,3.52,3.52,0,0,1-1.18.76,3.88,3.88,0,0,1-1.51.27h-4a1.45,1.45,0,0,1-1.46-1.51,1.61,1.61,0,0,1,.42-1.08,1.39,1.39,0,0,1,1-.5h4c.43,0,.64-.19.64-.57s-.21-.54-.64-.54h-2.6a3,3,0,0,1-1.33-.3,3.54,3.54,0,0,1-1.09-.79,3.76,3.76,0,0,1-.72-1.16,3.8,3.8,0,0,1-.26-1.42,3.51,3.51,0,0,1,.27-1.36,3.76,3.76,0,0,1,.75-1.14,3.54,3.54,0,0,1,2.5-1.11Z"/><path id="Trazado_165" data-name="Trazado 165" class="cls-1" d="M196.21,59.31a5.67,5.67,0,0,1,3.6,1.88,5.85,5.85,0,0,1,1.07,1.75,5.64,5.64,0,0,1,.39,2.07v4.18a1.43,1.43,0,0,1-.48,1.08,1.51,1.51,0,0,1-2.14,0,2.43,2.43,0,0,1-.24-.32,1,1,0,0,0-.21.1l-.19.11a6.92,6.92,0,0,1-1.16.4,5.69,5.69,0,0,1-1.3.14,5.52,5.52,0,0,1-3.17-1,6,6,0,0,1-2.07-2.47,6.29,6.29,0,0,1-.37-1.11,5.57,5.57,0,0,1,0-2.37,5.93,5.93,0,0,1,.37-1.1,5.84,5.84,0,0,1,2.07-2.49,5.51,5.51,0,0,1,3.17-.94h.34Zm-.69,8.34a2.56,2.56,0,0,0,1-.2,2.5,2.5,0,0,0,.84-.55,2.84,2.84,0,0,0,.57-.84,2.7,2.7,0,0,0,.21-1,2.42,2.42,0,0,0-.21-1,2.77,2.77,0,0,0-1.43-1.43,2.49,2.49,0,0,0-1-.21,2.41,2.41,0,0,0-1,.21,2.74,2.74,0,0,0-.84.58,2.62,2.62,0,0,0-.58.85,2.42,2.42,0,0,0-.21,1,2.48,2.48,0,0,0,.22,1,2.68,2.68,0,0,0,.59.83,2.84,2.84,0,0,0,.84.57A2.28,2.28,0,0,0,195.52,67.65Z"/><path id="Trazado_166" data-name="Trazado 166" class="cls-1" d="M204,70.75a1.48,1.48,0,0,1-1.07-.42,1.6,1.6,0,0,1-.47-1.1V64.86a5.23,5.23,0,0,1,.49-2.13A5.63,5.63,0,0,1,204.13,61a5.85,5.85,0,0,1,1.8-1.18,6.07,6.07,0,0,1,2.18-.49,1.48,1.48,0,0,1,1.1.45,1.72,1.72,0,0,1,.49,1.09,1.49,1.49,0,0,1-.45,1.07,1.61,1.61,0,0,1-1.11.46,2.59,2.59,0,0,0-2.41,1.6,2.38,2.38,0,0,0-.21,1.05v4.3a1.5,1.5,0,0,1-.47,1A1.47,1.47,0,0,1,204,70.75Z"/><path id="Trazado_167" data-name="Trazado 167" class="cls-1" d="M211.37,70.75a1.46,1.46,0,0,1-1.06-.42,1.6,1.6,0,0,1-.47-1.1V64.86a5.22,5.22,0,0,1,.48-2.13,5.71,5.71,0,0,1,3-2.93,6.07,6.07,0,0,1,2.18-.49,1.48,1.48,0,0,1,1.1.45,1.72,1.72,0,0,1,.49,1.09,1.49,1.49,0,0,1-.45,1.07,1.61,1.61,0,0,1-1.11.46,2.62,2.62,0,0,0-1.85.76,2.75,2.75,0,0,0-.78,1.89v4.3a1.48,1.48,0,0,1-1.54,1.42Z"/><path id="Trazado_168" data-name="Trazado 168" class="cls-1" d="M222.78,59.5A5.52,5.52,0,0,1,225,60a5.79,5.79,0,0,1,1.82,1.23A6,6,0,0,1,228,63a5.68,5.68,0,0,1,0,4.45,5.84,5.84,0,0,1-1.22,1.81,5.64,5.64,0,0,1-4.05,1.68,5.85,5.85,0,0,1-2.22-.43A5.76,5.76,0,0,1,217.5,63a5.76,5.76,0,0,1,1.21-1.8A6,6,0,0,1,220.53,60,6.4,6.4,0,0,1,222.78,59.5Zm0,3.1a2.5,2.5,0,0,0-1,.2,2.64,2.64,0,0,0-1.64,2.44,2.57,2.57,0,0,0,.22,1,2.62,2.62,0,0,0,.58.85,2.74,2.74,0,0,0,.84.58,2.47,2.47,0,0,0,1,.21,2.64,2.64,0,0,0,1-.21,2.69,2.69,0,0,0,.84-.58,2.79,2.79,0,0,0,.56-.85,2.41,2.41,0,0,0,.22-1,2.75,2.75,0,0,0-.78-1.84A2.69,2.69,0,0,0,222.78,62.6Z"/><path id="Trazado_169" data-name="Trazado 169" class="cls-1" d="M231.19,55.7a1.4,1.4,0,0,1,1.07.45,1.72,1.72,0,0,1,.49,1.11v9.33a1.12,1.12,0,0,0,.3.8,1,1,0,0,0,.78.33,1.55,1.55,0,0,1,1.08.43,1.44,1.44,0,0,1,.12,2l0,0a1.64,1.64,0,0,1-1,.53h-.33a3.51,3.51,0,0,1-1.56-.34,4.27,4.27,0,0,1-1.28-.91,4.18,4.18,0,0,1-.88-1.32,4.09,4.09,0,0,1-.32-1.58V57.16a1.71,1.71,0,0,1,.5-1A1.57,1.57,0,0,1,231.19,55.7Z"/><path id="Trazado_170" data-name="Trazado 170" class="cls-1" d="M237.8,55.7a1.42,1.42,0,0,1,1.08.45,1.71,1.71,0,0,1,.48,1.11v9.33a1.18,1.18,0,0,0,.31.8,1,1,0,0,0,.78.33,1.53,1.53,0,0,1,1.07.43,1.43,1.43,0,0,1,.13,2l0,0a1.62,1.62,0,0,1-1,.53h-.33a3.51,3.51,0,0,1-1.56-.34,4.27,4.27,0,0,1-1.28-.91,4.18,4.18,0,0,1-.88-1.32,4.09,4.09,0,0,1-.32-1.58V57.16a1.71,1.71,0,0,1,.5-1A1.55,1.55,0,0,1,237.8,55.7Z"/><path id="Trazado_171" data-name="Trazado 171" class="cls-1" d="M247.44,59.5a5.52,5.52,0,0,1,2.2.45,5.79,5.79,0,0,1,1.82,1.23A6,6,0,0,1,252.7,63a5.68,5.68,0,0,1,0,4.45,5.84,5.84,0,0,1-1.22,1.81,5.64,5.64,0,0,1-4.05,1.68,5.85,5.85,0,0,1-2.22-.43A5.76,5.76,0,0,1,242.16,63a5.71,5.71,0,0,1,3-3A6.45,6.45,0,0,1,247.44,59.5Zm0,3.1a2.5,2.5,0,0,0-1,.2,2.66,2.66,0,0,0-.84.55,2.65,2.65,0,0,0-.8,1.89,2.57,2.57,0,0,0,.22,1,2.75,2.75,0,0,0,1.42,1.43,2.5,2.5,0,0,0,1,.21,2.64,2.64,0,0,0,1-.21,2.69,2.69,0,0,0,.84-.58,3,3,0,0,0,.56-.85,2.41,2.41,0,0,0,.22-1,2.75,2.75,0,0,0-.78-1.84A2.69,2.69,0,0,0,247.44,62.6Z"/><path id="Trazado_172" data-name="Trazado 172" class="cls-1" d="M264.05,55.63a5.21,5.21,0,0,1,2,.41,5.52,5.52,0,0,1,1.72,1.15,5.64,5.64,0,0,1,1.2,1.7,5,5,0,0,1,.45,2.1v4.37a4.91,4.91,0,0,1-.44,2,5.85,5.85,0,0,1-1.17,1.71,5.45,5.45,0,0,1-1.71,1.18,5.1,5.1,0,0,1-2.07.44h-3.21a1.56,1.56,0,0,1-1.12-.46,1.52,1.52,0,0,1-.49-1.15V57.23a1.66,1.66,0,0,1,.46-1.11,1.51,1.51,0,0,1,1.15-.5Zm-1.63,3.21v8.67h1.63a2.08,2.08,0,0,0,.85-.17,2,2,0,0,0,.7-.46,2.11,2.11,0,0,0,.62-1.52V61a2.11,2.11,0,0,0-.62-1.52,2,2,0,0,0-.7-.46,2.26,2.26,0,0,0-.85-.17Z"/><path id="Trazado_173" data-name="Trazado 173" class="cls-1" d="M272.24,55.75a1.35,1.35,0,0,1,1.05.46,1.53,1.53,0,0,1,0,2.15,1.42,1.42,0,0,1-1.05.46,1.68,1.68,0,0,1-1.12-.44,1.53,1.53,0,0,1-.43-1.17,1.44,1.44,0,0,1,.48-1A1.52,1.52,0,0,1,272.24,55.75Zm0,3.61a1.35,1.35,0,0,1,1,.45,1.71,1.71,0,0,1,.46,1.09v8.36a1.5,1.5,0,0,1-.4,1.06,1.6,1.6,0,0,1-1.09.47,1.53,1.53,0,0,1-1-.37,1.67,1.67,0,0,1-.51-1.07V60.8a1.41,1.41,0,0,1,.5-1,1.59,1.59,0,0,1,1.05-.43Z"/><path id="Trazado_174" data-name="Trazado 174" class="cls-1" d="M280.75,59.29a5.65,5.65,0,0,1,2.22.45A5.91,5.91,0,0,1,284.79,61a5.69,5.69,0,0,1,1.65,4,5.83,5.83,0,0,1-.68,2.83,3.91,3.91,0,0,1,.68,2.34,4,4,0,0,1-.31,1.57,4.13,4.13,0,0,1-.84,1.31A4,4,0,0,1,284,74a4.37,4.37,0,0,1-1.58.39h-6a1.3,1.3,0,0,1-1-.46,1.56,1.56,0,0,1,0-2.15,1.46,1.46,0,0,1,1.07-.48h5.74a1,1,0,0,0,.78-.32,1.34,1.34,0,0,0,.36-.79v0a4.6,4.6,0,0,1-1.08.43,7,7,0,0,1-3.89-.26,5.3,5.3,0,0,1-3-3A6,6,0,0,1,275,65a5.06,5.06,0,0,1,.47-2.2A6,6,0,0,1,276.77,61a6.12,6.12,0,0,1,1.82-1.24A5.34,5.34,0,0,1,280.75,59.29Zm0,3.07a2.25,2.25,0,0,0-1,.23,2.61,2.61,0,0,0-.84.59,2.68,2.68,0,0,0-.59.83,2.29,2.29,0,0,0-.23,1,2.66,2.66,0,0,0,.2,1,2.79,2.79,0,0,0,.56.85,2.61,2.61,0,0,0,.84.59,2.33,2.33,0,0,0,1.05.22,2.61,2.61,0,0,0,1.06-.21,2.5,2.5,0,0,0,.85-.59,3.21,3.21,0,0,0,.56-.85,2.73,2.73,0,0,0,.2-1,2.41,2.41,0,0,0-.23-1,2.61,2.61,0,0,0-.59-.84,2.76,2.76,0,0,0-.85-.57,2.46,2.46,0,0,0-1-.21Z"/><path id="Trazado_175" data-name="Trazado 175" class="cls-1" d="M289.27,55.75a1.39,1.39,0,0,1,1.06.46,1.55,1.55,0,0,1,0,2.15,1.46,1.46,0,0,1-1.06.46,1.68,1.68,0,0,1-1.12-.44,1.53,1.53,0,0,1-.43-1.17,1.44,1.44,0,0,1,.48-1A1.52,1.52,0,0,1,289.27,55.75Zm0,3.61a1.33,1.33,0,0,1,1,.45,1.71,1.71,0,0,1,.46,1.09v8.36a1.5,1.5,0,0,1-.4,1.06,1.58,1.58,0,0,1-1.09.47,1.49,1.49,0,0,1-1-.37,1.63,1.63,0,0,1-.52-1.07V60.8a1.41,1.41,0,0,1,.5-1,1.59,1.59,0,0,1,1-.43Z"/><path id="Trazado_176" data-name="Trazado 176" class="cls-1" d="M293.72,55.63a1.51,1.51,0,0,1,1.11.46,1.77,1.77,0,0,1,.5,1.14V59h4.53a1.43,1.43,0,0,1,1.11.48,1.63,1.63,0,0,1,.43,1.11,1.59,1.59,0,0,1-.48,1.1,1.46,1.46,0,0,1-1.06.48h-4.54v2.69a2.46,2.46,0,0,0,.2,1,2.69,2.69,0,0,0,.55.86,2.46,2.46,0,0,0,.84.59,2.38,2.38,0,0,0,1,.21,2.88,2.88,0,0,0,1.05-.16,2.18,2.18,0,0,0,.77-.5,1.71,1.71,0,0,1,1.1-.44,1.62,1.62,0,0,1,1.12.46,1.42,1.42,0,0,1,.35.49,1.55,1.55,0,0,1,0,1.14,1.22,1.22,0,0,1-.3.5,6,6,0,0,1-1.82,1.23,5.37,5.37,0,0,1-2.13.43,6.51,6.51,0,0,1-2.31-.42,5.66,5.66,0,0,1-3.23-3,6.19,6.19,0,0,1-.51-2.4V57.12a1.35,1.35,0,0,1,.49-1.06A1.63,1.63,0,0,1,293.72,55.63Z"/><path id="Trazado_177" data-name="Trazado 177" class="cls-1" d="M309.68,59.31a5.67,5.67,0,0,1,3.6,1.88,6.06,6.06,0,0,1,1.07,1.75,5.43,5.43,0,0,1,.38,2.07v4.18a1.4,1.4,0,0,1-.47,1.08,1.51,1.51,0,0,1-2.14,0,1.83,1.83,0,0,1-.24-.31l-.22.1-.18.11a6.92,6.92,0,0,1-1.16.4,5.69,5.69,0,0,1-1.3.14,5.52,5.52,0,0,1-3.17-1,6,6,0,0,1-2.07-2.47,6.29,6.29,0,0,1-.37-1.11,5.57,5.57,0,0,1,0-2.37,5.93,5.93,0,0,1,.37-1.1,5.84,5.84,0,0,1,2.07-2.49,5.51,5.51,0,0,1,3.17-.94h.34ZM309,67.65a2.62,2.62,0,0,0,1-.2,2.56,2.56,0,0,0,.83-.55,2.66,2.66,0,0,0,.57-.84,2.53,2.53,0,0,0,.21-1,2.42,2.42,0,0,0-.21-1A2.77,2.77,0,0,0,310,62.58a2.46,2.46,0,0,0-2,0,2.87,2.87,0,0,0-.84.58,2.79,2.79,0,0,0-.58.85,2.42,2.42,0,0,0-.21,1,2.49,2.49,0,0,0,.23,1,2.68,2.68,0,0,0,.59.83,2.79,2.79,0,0,0,.83.57A2.35,2.35,0,0,0,309,67.65Z"/><path id="Trazado_178" data-name="Trazado 178" class="cls-1" d="M317.55,55.7a1.41,1.41,0,0,1,1.07.45,1.72,1.72,0,0,1,.49,1.11v9.33a1.12,1.12,0,0,0,.3.8,1,1,0,0,0,.78.33,1.55,1.55,0,0,1,1.08.43,1.44,1.44,0,0,1,.12,2l0,0a1.64,1.64,0,0,1-1,.53H320a3.51,3.51,0,0,1-1.56-.34,4.32,4.32,0,0,1-1.29-.91,4.15,4.15,0,0,1-.87-1.32,4.09,4.09,0,0,1-.32-1.58V57.16a1.65,1.65,0,0,1,.5-1A1.53,1.53,0,0,1,317.55,55.7Z"/></g><g id="Grupo_52" data-name="Grupo 52"><g id="Grupo_51" data-name="Grupo 51"><g id="Grupo_49" data-name="Grupo 49"><path id="Trazado_179" data-name="Trazado 179" class="cls-2" d="M29.17,68.41A5.77,5.77,0,0,1,26,67.5L4.69,54A5.8,5.8,0,0,1,2,49.06V21.33a5.8,5.8,0,0,1,2.71-4.91L26,2.88a5.91,5.91,0,0,1,6.27,0L53.66,16.42a5.79,5.79,0,0,1,2.7,4.91V49.06A5.79,5.79,0,0,1,53.66,54L32.32,67.5A5.84,5.84,0,0,1,29.17,68.41Zm-1-62.1L6.87,19.84a1.77,1.77,0,0,0-.82,1.49V49.06a1.75,1.75,0,0,0,.82,1.49L28.22,64.09a1.82,1.82,0,0,0,1.91,0L51.47,50.55a1.75,1.75,0,0,0,.82-1.49V21.33a1.77,1.77,0,0,0-.82-1.49L30.13,6.31A1.78,1.78,0,0,0,28.22,6.31Z"/></g><g id="Grupo_50" data-name="Grupo 50"><path id="Trazado_180" data-name="Trazado 180" class="cls-2" d="M29.17,70.39A7.84,7.84,0,0,1,25,69.17L3.63,55.64A7.73,7.73,0,0,1,0,49.06V21.33a7.73,7.73,0,0,1,3.63-6.58L25,1.21a7.91,7.91,0,0,1,8.4,0L54.72,14.75a7.74,7.74,0,0,1,3.62,6.58V49.06a7.73,7.73,0,0,1-3.63,6.58L33.37,69.17A7.79,7.79,0,0,1,29.17,70.39ZM29.17,4a3.87,3.87,0,0,0-2.08.6L5.75,18.09A3.81,3.81,0,0,0,4,21.33V49.06A3.82,3.82,0,0,0,5.75,52.3L27.1,65.83a3.93,3.93,0,0,0,4.15,0L52.6,52.3a3.84,3.84,0,0,0,1.79-3.24V21.33a3.83,3.83,0,0,0-1.79-3.24L31.25,4.56A3.74,3.74,0,0,0,29.17,4Zm0,62.37a3.68,3.68,0,0,1-2-.58L5.82,52.22a3.7,3.7,0,0,1-1.74-3.16V21.33a3.71,3.71,0,0,1,1.74-3.17L27.16,4.63a3.76,3.76,0,0,1,4,0L52.53,18.16a3.75,3.75,0,0,1,1.75,3.17V49.05a3.75,3.75,0,0,1-1.75,3.17L31.19,65.75a3.69,3.69,0,0,1-2,.58ZM8,48.94l21.14,13.4,21.15-13.4V21.45L29.17,8.05,8,21.45Z"/></g></g></g><g id="Grupo_56" data-name="Grupo 56"><g id="Grupo_55" data-name="Grupo 55"><g id="Grupo_53" data-name="Grupo 53"><path id="Trazado_181" data-name="Trazado 181" class="cls-2" d="M22.9,48.9a2,2,0,0,1-1.08-3.75L53.27,25.61A2,2,0,1,1,55.49,29l-.07,0L24,48.59A2.05,2.05,0,0,1,22.9,48.9Z"/></g><g id="Grupo_54" data-name="Grupo 54"><path id="Trazado_182" data-name="Trazado 182" class="cls-2" d="M22.9,50.87a4,4,0,0,1-2.12-7.4L52.22,23.93a4,4,0,1,1,4.25,6.8h0L25,50.27A4,4,0,0,1,22.9,50.87ZM53.27,25.61l1,1.68L22.87,46.83l0,.09h0L54.38,27.37Z"/></g></g></g><g id="Grupo_60" data-name="Grupo 60"><g id="Grupo_59" data-name="Grupo 59"><g id="Grupo_57" data-name="Grupo 57"><path id="Trazado_183" data-name="Trazado 183" class="cls-2" d="M22.34,64.45h0a2,2,0,0,1-2-2l.17-42a2,2,0,0,1,2-2h0a2,2,0,0,1,2,2h0l-.17,42A2,2,0,0,1,22.34,64.45Z"/></g><g id="Grupo_58" data-name="Grupo 58"><path id="Trazado_184" data-name="Trazado 184" class="cls-2" d="M22.34,66.43h0a4,4,0,0,1-4-4h0l.17-41.95a4,4,0,0,1,8,0h0l-.18,42A4,4,0,0,1,22.34,66.43Zm.12-46-.17,42,.05,0a.06.06,0,0,0,.06,0h0l.17-42Z"/></g></g></g><g id="Grupo_64" data-name="Grupo 64"><g id="Grupo_63" data-name="Grupo 63"><g id="Grupo_61" data-name="Grupo 61"><path id="Trazado_185" data-name="Trazado 185" class="cls-2" d="M43.12,35.62a2,2,0,0,1-1.1-.33L11.78,16A2,2,0,0,1,14,12.53h0L44.22,31.88a2,2,0,0,1-1.1,3.74Z"/></g><g id="Grupo_62" data-name="Grupo 62"><path id="Trazado_186" data-name="Trazado 186" class="cls-2" d="M43.12,37.6A4,4,0,0,1,41,37L10.72,17.61A4,4,0,0,1,9.5,12.09v0a4,4,0,0,1,5.54-1.2L45.28,30.22a4,4,0,0,1-2.17,7.38ZM12.92,14.2l-.09,0L43.11,33.63l.06,0Z"/></g></g></g></g></g></g></svg>