<svg xmlns="http://www.w3.org/2000/svg" viewBox="0 0 319.23 65.42"><defs><style>.cls-1{fill:#051122;}</style></defs><g id="Capa_2" data-name="Capa 2"><g id="Capa_1-2" data-name="Capa 1"><g id="Grupo_66" data-name="Grupo 66"><path id="Trazado_187" data-name="Trazado 187" class="cls-1" d="M44.52,53.65a6.62,6.62,0,0,1,2,4.86,6.94,6.94,0,0,1-2,5,6.82,6.82,0,0,1-4.86,2,7.15,7.15,0,0,1-5-2L13.92,42.39V58.46a6.57,6.57,0,0,1-2,4.86,7.1,7.1,0,0,1-9.87,0,6.51,6.51,0,0,1-2-4.86V6.88A6.57,6.57,0,0,1,2.05,2.07,6.94,6.94,0,0,1,13.92,6.88V23L34.69,2.07a7,7,0,0,1,5-2,6.87,6.87,0,0,1,4.86,11.77L23.64,32.67Z"/><path id="Trazado_188" data-name="Trazado 188" class="cls-1" d="M79.53,15.88a23.88,23.88,0,0,1,8.64,2.66,24.41,24.41,0,0,1,7,5.48,25.65,25.65,0,0,1,4.6,7.57,23.89,23.89,0,0,1,1.69,9V58.66a6.24,6.24,0,0,1-2,4.71A6.55,6.55,0,0,1,89,62a6.08,6.08,0,0,0-.92.46c-.27.17-.54.32-.82.46a26.31,26.31,0,0,1-5,1.74,24.85,24.85,0,0,1-5.63.62,23.64,23.64,0,0,1-13.72-4.15,25.54,25.54,0,0,1-9-10.69,27.11,27.11,0,0,1-1.59-4.81,23.58,23.58,0,0,1,0-10.24,27.11,27.11,0,0,1,1.59-4.81,25.09,25.09,0,0,1,9-10.74,23.85,23.85,0,0,1,13.72-4.1h1.48A10.83,10.83,0,0,1,79.53,15.88ZM76.56,52A11.53,11.53,0,0,0,81,51.14a11.05,11.05,0,0,0,3.63-2.4A11.88,11.88,0,0,0,87.1,45.1,11.09,11.09,0,0,0,88,40.55a10.68,10.68,0,0,0-.92-4.35A11.92,11.92,0,0,0,80.91,30a10.68,10.68,0,0,0-4.35-.92,10.14,10.14,0,0,0-4.3.92,12,12,0,0,0-3.64,2.5,11.75,11.75,0,0,0-2.5,3.69,10.68,10.68,0,0,0-.92,4.35,10.34,10.34,0,0,0,1,4.45,12,12,0,0,0,2.56,3.63,12.46,12.46,0,0,0,3.63,2.46,10,10,0,0,0,4.2.92Z"/><path id="Trazado_189" data-name="Trazado 189" class="cls-1" d="M131.62,15.47A25.51,25.51,0,0,1,141,17.26a24.39,24.39,0,0,1,7.88,5,25,25,0,0,1,5.42,7.62,22.23,22.23,0,0,1,2,9.52V58.36a6.35,6.35,0,0,1-1.9,4.6,6.61,6.61,0,0,1-4.65,2,6.85,6.85,0,0,1-4.77-1.79,5.85,5.85,0,0,1-2-4.55V40.24a11.57,11.57,0,0,0-.86-4.46,10.81,10.81,0,0,0-2.46-3.63,12.6,12.6,0,0,0-3.69-2.46,11.25,11.25,0,0,0-4.55-.92,10.94,10.94,0,0,0-4.3.87,12.18,12.18,0,0,0-3.58,2.3,10.76,10.76,0,0,0-2.46,3.48,10.33,10.33,0,0,0-.92,4.3V58.35a6.32,6.32,0,0,1-2,4.66,6.55,6.55,0,0,1-4.7,2,6.75,6.75,0,0,1-4.71-1.84,5.81,5.81,0,0,1-2.05-4.5V40.24a25.82,25.82,0,0,1,2-9.62,24.47,24.47,0,0,1,22.88-15.15Z"/><path id="Trazado_190" data-name="Trazado 190" class="cls-1" d="M168.47,0A5.13,5.13,0,0,1,171,.48,8.34,8.34,0,0,1,173.23,2a6.33,6.33,0,0,1,1.48,2.2,6.89,6.89,0,0,1,.51,2.61V18.54a23.39,23.39,0,0,1,7.42-2.4,25.68,25.68,0,0,1,7.63,0,26,26,0,0,1,7.36,2.25,23.63,23.63,0,0,1,12,12.48,24.65,24.65,0,0,1,1.79,9.68,23.59,23.59,0,0,1-2,9.62,25.91,25.91,0,0,1-5.38,7.88,25.14,25.14,0,0,1-7.88,5.32,23.57,23.57,0,0,1-9.52,1.94,22.94,22.94,0,0,1-9.41-2A26.28,26.28,0,0,1,169.34,58a26,26,0,0,1-5.48-7.89,22.76,22.76,0,0,1-2.05-9.51V6.26a5.19,5.19,0,0,1,.62-2.4,7.68,7.68,0,0,1,1.53-2,7.49,7.49,0,0,1,2.1-1.38A4.87,4.87,0,0,1,168.47,0Zm6.75,40.53a11,11,0,0,0,.92,4.45,11.25,11.25,0,0,0,2.51,3.63,12.59,12.59,0,0,0,3.63,2.46,10.86,10.86,0,0,0,8.75,0,12.22,12.22,0,0,0,3.69-2.46A11.41,11.41,0,0,0,197.23,45a11.28,11.28,0,0,0,0-8.9,11.41,11.41,0,0,0-2.51-3.63A12.41,12.41,0,0,0,191,30a10.68,10.68,0,0,0-4.35-.92,10.16,10.16,0,0,0-4.4,1,13,13,0,0,0-3.63,2.56,12,12,0,0,0-2.51,3.69A10.5,10.5,0,0,0,175.22,40.55Z"/><path id="Trazado_191" data-name="Trazado 191" class="cls-1" d="M242.36,15.88A24,24,0,0,1,251,18.54,24.69,24.69,0,0,1,258,24a26.08,26.08,0,0,1,4.6,7.57,24.09,24.09,0,0,1,1.69,9V58.66a6.25,6.25,0,0,1-2.05,4.71,6.56,6.56,0,0,1-9.28.05A6.84,6.84,0,0,1,251.87,62a6.08,6.08,0,0,0-.92.46,8.2,8.2,0,0,1-.82.46,26.31,26.31,0,0,1-5,1.74,24.85,24.85,0,0,1-5.63.62,23.66,23.66,0,0,1-13.72-4.15,25.62,25.62,0,0,1-9-10.69,26.29,26.29,0,0,1-1.58-4.81,23.28,23.28,0,0,1,0-10.24,26.29,26.29,0,0,1,1.58-4.81,25.09,25.09,0,0,1,9-10.74,23.88,23.88,0,0,1,13.72-4.1H241A10.7,10.7,0,0,1,242.36,15.88Zm-3,36.13a11.5,11.5,0,0,0,4.45-.87,11.09,11.09,0,0,0,3.64-2.4,11.67,11.67,0,0,0,2.45-3.64,11.1,11.1,0,0,0,.93-4.55,10.69,10.69,0,0,0-.93-4.35A11.89,11.89,0,0,0,243.74,30a10.68,10.68,0,0,0-4.35-.92,10.14,10.14,0,0,0-4.3.92,12.08,12.08,0,0,0-3.63,2.5A12,12,0,0,0,229,36.2a10.68,10.68,0,0,0-.92,4.35A10.49,10.49,0,0,0,229,45a12,12,0,0,0,2.56,3.63,12.5,12.5,0,0,0,3.64,2.46,10.07,10.07,0,0,0,4.19.92Z"/><path id="Trazado_192" data-name="Trazado 192" class="cls-1" d="M294.45,15.47a25.47,25.47,0,0,1,9.42,1.79,24.28,24.28,0,0,1,7.88,5,25.2,25.2,0,0,1,5.43,7.62,22.37,22.37,0,0,1,2,9.52V58.36a6.35,6.35,0,0,1-1.9,4.6,6.59,6.59,0,0,1-4.65,2,6.81,6.81,0,0,1-4.76-1.79,5.82,5.82,0,0,1-2-4.55V40.24a11.77,11.77,0,0,0-.87-4.46,10.81,10.81,0,0,0-2.46-3.63,12.69,12.69,0,0,0-3.68-2.46,11.33,11.33,0,0,0-4.56-.92,11,11,0,0,0-4.3.87,12.18,12.18,0,0,0-3.58,2.3A10.91,10.91,0,0,0,284,35.42a10.49,10.49,0,0,0-.92,4.3V58.35A6.34,6.34,0,0,1,281,63a6.59,6.59,0,0,1-4.71,2,6.75,6.75,0,0,1-4.71-1.84,5.81,5.81,0,0,1-2.05-4.5V40.24a26,26,0,0,1,2-9.62,24.47,24.47,0,0,1,22.88-15.15Z"/></g></g></g></svg>