<svg xmlns="http://www.w3.org/2000/svg" viewBox="0 0 284.89 299.83"><defs><style>.cls-1{fill:#f24b46;}.cls-2{fill:#fd8857;}.cls-3{fill:#f9795a;}.cls-4{fill:#b1c9f6;}.cls-5{fill:#ff938f;}.cls-6{fill:#1b2251;}.cls-7{fill:#242e6c;}.cls-8{fill:#ff7d78;}.cls-9{fill:#7f22ba;}.cls-10{fill:#ecebfc;}.cls-11{fill:#6615b2;}.cls-12{fill:#c0d3f8;}.cls-13{fill:#efecea;}</style></defs><g id="Capa_2" data-name="Capa 2"><g id="Capa_1-2" data-name="Capa 1"><g id="Grupo_207" data-name="Grupo 207"><g id="Grupo_201" data-name="Grupo 201"><g id="Grupo_199" data-name="Grupo 199"><path id="Trazado_461" data-name="Trazado 461" class="cls-1" d="M80.89,167c-.77-19-2.44-35.58-4.43-47.13-3.19-18.4-6-29-6.08-29.1-.42-1.61-6.48-8.16-19.94-8s-12.19,8.79-12.19,8.79h0a2.78,2.78,0,0,0,.1.76c.13.45,12.49,45.26,11.95,103.12,0,.81-.1,2.22,0,3.15,0,0,31.2.81,31.21,0C82.56,193.56,82,179.55,80.89,167Z"/><path id="Trazado_462" data-name="Trazado 462" class="cls-2" d="M84.82,195.18c0,.81-.44,1.46-1,1.46h0c-.52,0-.93-.66-.94-1.46H56.17c0,.81-.43,1.46-1,1.46h0c-.53,0-1-.68-.94-1.5a405.12,405.12,0,0,0-2.22-45.68c-3.56-34-10.13-56.79-10.22-57.11a2.78,2.78,0,0,1-.1-.76S40.45,83,53.92,82.8s19.52,6.35,19.94,8c0,.09,1.64,6.08,3.8,16.86.71,3.57,1.48,7.67,2.27,12.24,2,11.55,3.67,28.1,4.44,47.13C85.51,179.55,85.9,190.13,84.82,195.18Z"/><path id="Trazado_463" data-name="Trazado 463" class="cls-3" d="M52.29,196.64H157.12s-2.44-9.88-63.15-8.41C51,189.27,52.29,196.64,52.29,196.64Z"/><g id="Grupo_194" data-name="Grupo 194"><path id="Trazado_464" data-name="Trazado 464" class="cls-1" d="M43.76,299.83c12.15-61.54,9-99.3,9-99.77,0-.95,1.72-1.81,2.66-1.84s5.14-.28,5.63.53c.63,1.06,3.08,47.59-15,101.08Z"/></g><g id="Grupo_195" data-name="Grupo 195"><path id="Trazado_465" data-name="Trazado 465" class="cls-1" d="M141.64,299.83c-12.16-61.54-9-99.3-9-99.77,0-.95-1.71-1.81-2.65-1.84s-5.15-.28-5.63.53c-.64,1.06-3.09,47.59,15,101.08Z"/></g><g id="Grupo_196" data-name="Grupo 196"><path id="Trazado_466" data-name="Trazado 466" class="cls-1" d="M161,299.83c-12.16-61.54-9-99.3-9-99.77,0-.95-1.71-1.81-2.65-1.84s-5.15-.28-5.64.53c-.63,1.06-3.08,47.59,15,101.08Z"/></g><g id="Grupo_197" data-name="Grupo 197"><path id="Trazado_467" data-name="Trazado 467" class="cls-1" d="M63.28,299.83c12.16-61.54,9-99.3,9-99.77,0-.95,1.71-1.81,2.65-1.84s5.15-.28,5.64.53c.63,1.06,3.08,47.59-15,101.08Z"/></g><rect id="Rect치ngulo_48" data-name="Rect치ngulo 48" class="cls-1" x="50.2" y="194.08" width="109.13" height="5.71" rx="2.85"/><g id="Grupo_198" data-name="Grupo 198"><path id="Trazado_468" data-name="Trazado 468" class="cls-4" d="M153.5,105.12l34.85-7.55,2.05,5S152,125.45,148.35,124.33,153.5,105.12,153.5,105.12Z"/><path id="Trazado_469" data-name="Trazado 469" class="cls-5" d="M121.82,262.72a3.09,3.09,0,0,0-.55,3.31s0,0,0,0c.8,2.2,3.44,4.67,6.5,7.13.39.32.74.6,1,.87l.24.21.18.16c2.86,2.64,1.78,3.24,6.92,8.59,5.85,6.09,9.88,6.2,11,5.64,1-.47-1-3.7-3.19-7.33l-.31-.53-.87-1.46c-2.56-4.37-1.9-6.42-1.3-12.93.49-5.28,8.22-29.53,8.22-29.53l-11.22-1.93s-3.38,19.3-7.1,22.28c-2,1.58-4.22,1.6-6.13,2.78l-.4.25A14.6,14.6,0,0,0,121.82,262.72Z"/><path id="Trazado_470" data-name="Trazado 470" class="cls-6" d="M121.82,262.72a3.09,3.09,0,0,0-.55,3.31s0,0,0,0c1,2.2,3.55,4.65,6.51,7.11.39.32.73.61,1,.89l.24.21.18.16c2.86,2.64,1.78,3.24,6.92,8.59,5.85,6.09,9.89,6.2,11,5.64,1-.47-1-3.7-3.18-7.33a25,25,0,0,1-10.44-7.69c-3.53-4.5-5.88-10.28-8.28-13.63l-.4.25A14.6,14.6,0,0,0,121.82,262.72Z"/><path id="Trazado_471" data-name="Trazado 471" class="cls-5" d="M212.31,255.71c.69,3.46,5.63,2.89,11.14,1.54s4.21.25,12.06-.62,10.23-3.8,10.47-5-3.67-1.4-7.83-1.88l-1.57-.19c-4.7-.59-8.14-3.62-12.41-6.11-4-2.36-10.07-12-10.07-12l-10.77.86s5.65,8.58,7.84,12.31c1.28,2.19,1.21,5.1,1.05,7.34A14.18,14.18,0,0,0,212.31,255.71Z"/><path id="Trazado_472" data-name="Trazado 472" class="cls-6" d="M223.46,257.25c5.51-1.35,4.2.25,12-.62s10.23-3.8,10.47-5-3.66-1.4-7.82-1.88l0,.08a22.16,22.16,0,0,1-11.25,3.49c-5.32.13-11-1.4-14.64-1.33a13.75,13.75,0,0,0,.08,3.68C213,259.17,217.94,258.6,223.46,257.25Z"/><path id="Trazado_473" data-name="Trazado 473" class="cls-4" d="M188.35,97.57s2.57-6.29,5.39-6.54,11.8-1.67,12.44-.39,0,5.9-1.92,7.57-13.86,4.36-13.86,4.36Z"/><path id="Trazado_474" data-name="Trazado 474" class="cls-6" d="M171.05,186.86l-23.21,62.45a21,21,0,0,1-7-.64,30.1,30.1,0,0,1-6.75-3.28s5.75-60,16.31-72.44S171.05,186.86,171.05,186.86Z"/><path id="Trazado_475" data-name="Trazado 475" class="cls-7" d="M79.26,161.59s66.68-22.54,81.55-17.75,59.52,93.63,59.52,93.63a8.58,8.58,0,0,1-3.76,2.38c-2.55,1-8.75.9-8.75.9s-40.29-34.54-45.09-44.62-6.71-19.66-11.51-18.7-61.88,23.5-74.83,10.07-9.57-30.88-9.57-30.88Z"/><path id="Trazado_476" data-name="Trazado 476" class="cls-7" d="M117.28,2.62A16.2,16.2,0,0,0,108.52.94a4.16,4.16,0,0,1,1.85-.87c-1.5-.23-4.84,1.26-4.84,1.26C84.69-6.7,81.41,24,81.85,31.11s.49,15.33-9.91,21.73c-20.47,12.58-3.2,34.54-3.2,34.54.16.1,9.52,16,9.52,16-.53-5.76,26.05-36.16,39.92-45.26,3.38-5,4.58-13.75,4.67-14.44-.59,7-1.78,10.86-2.84,13.06C131.75,45.9,124.92,7,117.28,2.62Z"/><path id="Trazado_477" data-name="Trazado 477" class="cls-5" d="M117.36,58.54c.07,0-6.7,3.55-11.78,2.15-4.79-1.3-7.92-7.51-7.85-7.52,2-.4,2.61-3.19,2.57-15.16l.91.18,15.41,3.05s-.35,4.85-.36,9.42C116.25,54.49,116.48,58.14,117.36,58.54Z"/><path id="Trazado_478" data-name="Trazado 478" class="cls-8" d="M116.62,41.24s-.35,4.85-.36,9.42c-8.62-.25-13.18-8.11-15.05-12.47Z"/><path id="Trazado_479" data-name="Trazado 479" class="cls-7" d="M99.62,36.51S95.1,29.37,94,23.27c-.77-4.36,1.45-20.51,17.68-18.19a22.18,22.18,0,0,1,9.15,3.46c3.53,2.38,8.61,7.52,2.92,21.62l-1.47,4.76Z"/><path id="Trazado_480" data-name="Trazado 480" class="cls-5" d="M119.5,45.57S99.1,45.9,99.09,33.2s-2.66-21.22,10.36-22,15.56,4.1,16.6,8.34S124.81,45.15,119.5,45.57Z"/><path id="Trazado_481" data-name="Trazado 481" class="cls-7" d="M118.75,10.91S113.16,25.82,104.59,28s-12.29-.09-12.29-.09a24.22,24.22,0,0,0,7.94-14.34S114.53,3.82,118.75,10.91Z"/><path id="Trazado_482" data-name="Trazado 482" class="cls-7" d="M117.36,12.12s4.17,3.33,5.19,6.57,1.47,9.9,3.42,9.67c0,0,4.2-10.14-.52-15.87C120.43,6.41,117.36,12.12,117.36,12.12Z"/><path id="Trazado_483" data-name="Trazado 483" class="cls-9" d="M71.94,113.42c-2-8.44,4.83-24.81,12-38.36C90.4,62.77,97.13,52.81,97.73,53.17c17.1,10.15,18.64,1.71,18.64,1.71h0s15.53,2.06,19.93,9.63c5.45,9.39,11.35,35.63,17.2,40.6-.9,2.75-.51,4.21.44,7.62.2.74.43,1.43.68,2.09a40,40,0,0,0,2.94,6c-3,1.81-8.72,5.25-13,2.77-6.45-3.77-11.49-15.27-14.32-19.85l0,0c-6.16,34.87,2.21,42.81-2,46.48-4.47,3.89-10.87-1.85-24.94,4.25-9.23,4-22,9.8-30.66,10.8-4.53.53-7.9-.25-9-3.31C60.42,153.07,75.78,129.5,71.94,113.42Z"/><path id="Trazado_484" data-name="Trazado 484" class="cls-10" d="M115,37.86s.38,1.62,4.4,1.37c0,0,3.37-.21,3.27-2A10.87,10.87,0,0,0,115,37.86Z"/><path id="Trazado_485" data-name="Trazado 485" class="cls-11" d="M63.62,162c1.1,3.05,4.48,3.84,9,3.31,6-2.6,31.75-12.59,31.46-19.36-.42-10-5-10.34-1.76-22.7,2.57-9.93-21.25-28.4-25-32.41-7.14,13.55-7.34,14.19-5.33,22.63C75.78,129.5,60.42,153.07,63.62,162Z"/><path id="Trazado_486" data-name="Trazado 486" class="cls-9" d="M60.71,125.81a37.68,37.68,0,0,1,12.47-11.52C72.45,112.43,92.41,88,92.41,84.18s5.32-31,5.32-31-16.62,1-22.38,9C68.16,72.26,53.2,110.89,60.71,125.81Z"/><path id="Trazado_487" data-name="Trazado 487" class="cls-5" d="M73.18,114.29,106.4,123l-3.12,5.6s-40.43-.28-42.57-2.75S73.18,114.29,73.18,114.29Z"/><path id="Trazado_488" data-name="Trazado 488" class="cls-11" d="M130.28,103.78c2.83,4.58,7.87,16.07,14.32,19.85,4.24,2.47,10-1,13-2.77a40.1,40.1,0,0,1-2.94-6c-2.38.54-5.27,1.24-7.14,1.8C143.84,117.73,130.28,103.78,130.28,103.78Z"/><path id="Trazado_489" data-name="Trazado 489" class="cls-5" d="M106.4,123s10.43-2.95,12.91-2.26,11,6.32,9.8,7.85-8.7-.91-12.14-.45-6.12,2.17-8.61,1.8a28.8,28.8,0,0,1-5.08-1.34Z"/><path id="Trazado_490" data-name="Trazado 490" class="cls-5" d="M106.4,123s5.1-2.63,6.55-4.12a.41.41,0,0,1,.58,0l.06.07c.39.62.75,1.8-1,3C110,123.59,106.4,123,106.4,123Z"/></g></g><g id="Grupo_200" data-name="Grupo 200"><path id="Trazado_491" data-name="Trazado 491" class="cls-6" d="M154.61,137.64H105.94a3.87,3.87,0,0,1,3.88-3.88h44.79Z"/><path id="Trazado_492" data-name="Trazado 492" class="cls-12" d="M154.47,84.63h75.25l-18.05,53H135.93Z"/><path id="Trazado_493" data-name="Trazado 493" class="cls-7" d="M230.83,84.63l-18.05,53H137l18.54-53Z"/><path id="Trazado_494" data-name="Trazado 494" class="cls-13" d="M190.26,110.64a4.9,4.9,0,0,1-4.51,3.67,2.83,2.83,0,0,1-2.95-2.7,2.87,2.87,0,0,1,.12-1,4.91,4.91,0,0,1,4.52-3.67,2.83,2.83,0,0,1,2.95,2.7A2.88,2.88,0,0,1,190.26,110.64Z"/></g></g><g id="Grupo_203" data-name="Grupo 203"><g id="Grupo_202" data-name="Grupo 202"><path id="Trazado_495" data-name="Trazado 495" class="cls-3" d="M12.36,299.83a1.94,1.94,0,0,0,1.93-1.58l9.45-53.58,13.6-77,3.8-21.55-9.68-.27-1.68,12.5L18,246.2l-7,52.1a1.37,1.37,0,0,0,1.2,1.52Z"/></g><path id="Trazado_496" data-name="Trazado 496" class="cls-1" d="M29.78,158.31a13.9,13.9,0,0,1,7.56,9.32l3.8-21.55-9.68-.27Z"/></g><g id="Grupo_205" data-name="Grupo 205"><g id="Grupo_204" data-name="Grupo 204"><path id="Trazado_497" data-name="Trazado 497" class="cls-3" d="M253.21,299.83a2,2,0,0,1-1.93-1.58l-9.45-53.58-13.6-77-3.8-21.55,9.69-.27,1.68,12.5,11.8,87.89,7,52.1a1.37,1.37,0,0,1-1.2,1.52Z"/></g><path id="Trazado_498" data-name="Trazado 498" class="cls-1" d="M235.8,158.31a13.88,13.88,0,0,0-7.57,9.32l-3.8-21.55,9.69-.27Z"/></g><path id="Rect치ngulo_49" data-name="Rect치ngulo 49" class="cls-3" d="M251.32,154.54H8.46A8.46,8.46,0,0,1,0,146.08H0a8.46,8.46,0,0,1,8.46-8.46H251.32a8.45,8.45,0,0,1,8.45,8.46h0A8.45,8.45,0,0,1,251.32,154.54Z"/><g id="Grupo_206" data-name="Grupo 206"><path id="Trazado_499" data-name="Trazado 499" class="cls-7" d="M272.31,13.45H219.66A12.61,12.61,0,0,0,207.09,26V45.94a12.5,12.5,0,0,0,3.12,8.27l-3.12,14.3,18-10h47.18a12.62,12.62,0,0,0,12.58-12.58V26A12.61,12.61,0,0,0,272.31,13.45Z"/><path id="Trazado_500" data-name="Trazado 500" class="cls-4" d="M273.3,28.62H218.72a2,2,0,0,1-2-2h0a2.06,2.06,0,0,1,2-2H273.3a2.07,2.07,0,0,1,2.05,2h0A2.06,2.06,0,0,1,273.3,28.62Z"/><path id="Trazado_501" data-name="Trazado 501" class="cls-4" d="M273.3,37.56H218.72a2,2,0,0,1-2-2h0a2,2,0,0,1,2-2H273.3a2.05,2.05,0,0,1,2.05,2h0A2.05,2.05,0,0,1,273.3,37.56Z"/><path id="Trazado_502" data-name="Trazado 502" class="cls-4" d="M273.3,46.17H218.72a2.06,2.06,0,0,1-2-2.05h0a2,2,0,0,1,2-2H273.3a2.06,2.06,0,0,1,2.05,2h0A2.07,2.07,0,0,1,273.3,46.17Z"/></g></g></g></g></svg>