<svg xmlns="http://www.w3.org/2000/svg" viewBox="0 0 372.97 86.19"><defs><style>.cls-1{fill:#ececec;}.cls-2{fill:#67b32e;}</style></defs><g id="Capa_2" data-name="Capa 2"><g id="Capa_1-2" data-name="Capa 1"><g id="Grupo_42" data-name="Grupo 42"><g id="Grupo_24" data-name="Grupo 24"><path id="Trazado_75" data-name="Trazado 75" class="cls-1" d="M119.4,49.53A6.1,6.1,0,0,1,121.29,54a6.4,6.4,0,0,1-1.89,4.58,6.3,6.3,0,0,1-4.48,1.8,6.62,6.62,0,0,1-4.59-1.8L91.16,39.14V54a6.11,6.11,0,0,1-1.85,4.49,6.55,6.55,0,0,1-9.11,0A6,6,0,0,1,78.31,54V6.36A6,6,0,0,1,80.2,1.92a6.4,6.4,0,0,1,11,4.44V21.19L110.33,1.92A6.43,6.43,0,0,1,114.92,0a6.34,6.34,0,0,1,4.48,10.86L100.13,30.17Z"/><path id="Trazado_76" data-name="Trazado 76" class="cls-1" d="M151.71,14.67a22,22,0,0,1,8,2.46,22.51,22.51,0,0,1,6.42,5.05,23.87,23.87,0,0,1,4.25,7,22.09,22.09,0,0,1,1.56,8.27V54.16A5.76,5.76,0,0,1,170,58.51a6.06,6.06,0,0,1-8.56,0,6.33,6.33,0,0,1-1-1.27,6.71,6.71,0,0,0-.85.42,7.07,7.07,0,0,1-.76.43,24.84,24.84,0,0,1-4.63,1.6,22.62,22.62,0,0,1-5.19.57,21.9,21.9,0,0,1-12.66-3.83,23.52,23.52,0,0,1-8.31-9.87,24.85,24.85,0,0,1-1.47-4.44,21.83,21.83,0,0,1,0-9.45,24.85,24.85,0,0,1,1.47-4.44,23.12,23.12,0,0,1,8.31-9.92,22.09,22.09,0,0,1,12.66-3.78h1.37A8.94,8.94,0,0,1,151.71,14.67ZM149,48a10.52,10.52,0,0,0,4.11-.8A10.1,10.1,0,0,0,156.44,45a10.79,10.79,0,0,0,2.27-3.35,10.48,10.48,0,0,0,.85-4.2,9.93,9.93,0,0,0-.85-4A11,11,0,0,0,153,27.72a9.9,9.9,0,0,0-4-.85,9.34,9.34,0,0,0-4,.85A11.26,11.26,0,0,0,141.65,30a11,11,0,0,0-2.31,3.4,9.93,9.93,0,0,0-.85,4,9.58,9.58,0,0,0,.9,4.11,11.06,11.06,0,0,0,2.36,3.35,11.73,11.73,0,0,0,3.35,2.27A9.43,9.43,0,0,0,149,48Z"/><path id="Trazado_77" data-name="Trazado 77" class="cls-1" d="M199.8,14.29A23.55,23.55,0,0,1,208.49,16a22.41,22.41,0,0,1,7.27,4.63,23,23,0,0,1,5,7,20.54,20.54,0,0,1,1.89,8.79V53.88a5.86,5.86,0,0,1-1.75,4.25,6.08,6.08,0,0,1-4.3,1.89,6.38,6.38,0,0,1-4.4-1.65,5.41,5.41,0,0,1-1.84-4.21v-17a10.52,10.52,0,0,0-.8-4.11,9.94,9.94,0,0,0-2.27-3.35,11.44,11.44,0,0,0-3.4-2.27,10.28,10.28,0,0,0-4.2-.85,10.06,10.06,0,0,0-4,.8,11.41,11.41,0,0,0-3.31,2.12,9.94,9.94,0,0,0-2.26,3.22,9.34,9.34,0,0,0-.85,4v17.2a5.84,5.84,0,0,1-1.89,4.3A6.05,6.05,0,0,1,183.07,60a6.29,6.29,0,0,1-4.34-1.7,5.37,5.37,0,0,1-1.89-4.16v-17a23.75,23.75,0,0,1,1.84-8.88A22.89,22.89,0,0,1,183.5,21a22.54,22.54,0,0,1,16.3-6.7Z"/><path id="Trazado_78" data-name="Trazado 78" class="cls-1" d="M233.81,0a4.66,4.66,0,0,1,2.36.42,7.85,7.85,0,0,1,2,1.37,6,6,0,0,1,1.37,2,6.67,6.67,0,0,1,.47,2.41V17.13a21.5,21.5,0,0,1,6.85-2.22A23.91,23.91,0,0,1,260.73,17a21.81,21.81,0,0,1,11.1,11.52,22.77,22.77,0,0,1,1.66,8.93,21.72,21.72,0,0,1-1.85,8.88,23.82,23.82,0,0,1-5,7.28,23.22,23.22,0,0,1-7.27,4.91,21.94,21.94,0,0,1-8.79,1.79,21.19,21.19,0,0,1-8.69-1.84,24.17,24.17,0,0,1-12.37-12.23,20.84,20.84,0,0,1-1.89-8.79V5.79a4.78,4.78,0,0,1,.56-2.22,7.5,7.5,0,0,1,1.42-1.89A6.81,6.81,0,0,1,231.59.4,4.57,4.57,0,0,1,233.81,0Zm6.24,37.41a10.06,10.06,0,0,0,.85,4.11,10.36,10.36,0,0,0,2.31,3.35,11.58,11.58,0,0,0,3.36,2.27,9.76,9.76,0,0,0,4.06.85,9.89,9.89,0,0,0,4-.85A11.5,11.5,0,0,0,258,44.9a10.23,10.23,0,0,0,2.32-3.35A10.36,10.36,0,0,0,258,30a11.44,11.44,0,0,0-3.4-2.27,9.89,9.89,0,0,0-4-.85,9.33,9.33,0,0,0-4.06.9,12.14,12.14,0,0,0-3.36,2.36,11,11,0,0,0-2.31,3.4A9.47,9.47,0,0,0,240.05,37.44Z"/><path id="Trazado_79" data-name="Trazado 79" class="cls-1" d="M302,14.67a22,22,0,0,1,8,2.46,22.69,22.69,0,0,1,6.43,5.05,24.09,24.09,0,0,1,4.25,7,22.29,22.29,0,0,1,1.56,8.27V54.16a5.8,5.8,0,0,1-1.89,4.35,6.06,6.06,0,0,1-8.56,0,6.33,6.33,0,0,1-1-1.27,6.11,6.11,0,0,0-.85.42,8.2,8.2,0,0,1-.76.43,25.36,25.36,0,0,1-4.63,1.6,22.68,22.68,0,0,1-5.19.57,21.93,21.93,0,0,1-12.67-3.83,23.59,23.59,0,0,1-8.31-9.87,25.64,25.64,0,0,1-1.46-4.44,21.53,21.53,0,0,1,0-9.45,25.64,25.64,0,0,1,1.46-4.44,23.19,23.19,0,0,1,8.31-9.92,22.15,22.15,0,0,1,12.67-3.78h1.37A9.06,9.06,0,0,1,302,14.67ZM299.28,48a10.52,10.52,0,0,0,4.11-.8A10.16,10.16,0,0,0,306.74,45,10.79,10.79,0,0,0,309,41.65a10.31,10.31,0,0,0,.85-4.2,9.93,9.93,0,0,0-.85-4,11,11,0,0,0-5.72-5.71,9.89,9.89,0,0,0-4-.85,9.39,9.39,0,0,0-4,.85,11.17,11.17,0,0,0-5.67,5.71,9.93,9.93,0,0,0-.85,4,9.73,9.73,0,0,0,.9,4.11,11.27,11.27,0,0,0,2.37,3.35,11.6,11.6,0,0,0,3.35,2.27,9.43,9.43,0,0,0,3.87.84Z"/><path id="Trazado_80" data-name="Trazado 80" class="cls-1" d="M350.11,14.29A23.51,23.51,0,0,1,358.8,16a22.25,22.25,0,0,1,7.27,4.63,23,23,0,0,1,5,7A20.54,20.54,0,0,1,373,36.4V53.88a5.86,5.86,0,0,1-1.75,4.25,6.08,6.08,0,0,1-4.3,1.89,6.35,6.35,0,0,1-4.39-1.65,5.41,5.41,0,0,1-1.84-4.21v-17a10.71,10.71,0,0,0-.8-4.11,9.94,9.94,0,0,0-2.27-3.35,11.44,11.44,0,0,0-3.4-2.27,10.31,10.31,0,0,0-4.2-.85,10,10,0,0,0-4,.8,11.41,11.41,0,0,0-3.31,2.12,10.12,10.12,0,0,0-2.27,3.22,9.49,9.49,0,0,0-.84,4v17.2a5.84,5.84,0,0,1-1.89,4.3A6.05,6.05,0,0,1,333.39,60a6.33,6.33,0,0,1-4.35-1.7,5.39,5.39,0,0,1-1.88-4.16v-17A23.75,23.75,0,0,1,329,28.29,22.89,22.89,0,0,1,333.82,21a22.54,22.54,0,0,1,16.3-6.7Z"/></g><g id="Grupo_25" data-name="Grupo 25"><path id="Trazado_81" data-name="Trazado 81" class="cls-1" d="M84.69,64.48A5.87,5.87,0,0,1,87,65a6.39,6.39,0,0,1,2,1.32,6.77,6.77,0,0,1,1.39,2,5.87,5.87,0,0,1,.51,2.44v5.07a5.77,5.77,0,0,1-.5,2.35,6.77,6.77,0,0,1-1.36,2,6.42,6.42,0,0,1-2,1.36,5.85,5.85,0,0,1-2.4.51H81a1.84,1.84,0,0,1-1.3-.53,1.78,1.78,0,0,1-.56-1.33V66.34a1.83,1.83,0,0,1,.53-1.29A1.75,1.75,0,0,1,81,64.48ZM82.8,68.2v10h1.89a2.53,2.53,0,0,0,1-.2,2.32,2.32,0,0,0,.81-.53,2.48,2.48,0,0,0,.73-1.76V70.69a2.47,2.47,0,0,0-.73-1.76,2.22,2.22,0,0,0-.81-.54,2.52,2.52,0,0,0-1-.19Z"/><path id="Trazado_82" data-name="Trazado 82" class="cls-1" d="M94.19,64.61a1.62,1.62,0,0,1,1.22.53,1.79,1.79,0,0,1,0,2.49,1.63,1.63,0,0,1-1.22.54,1.9,1.9,0,0,1-1.3-.51,1.79,1.79,0,0,1-.51-1.35A1.71,1.71,0,0,1,93,65.1,1.78,1.78,0,0,1,94.19,64.61Zm0,4.19a1.55,1.55,0,0,1,1.19.52,2,2,0,0,1,.54,1.26v9.69a1.74,1.74,0,0,1-.47,1.23,1.81,1.81,0,0,1-1.26.55,1.76,1.76,0,0,1-1.2-.44,1.92,1.92,0,0,1-.6-1.23V70.47A1.74,1.74,0,0,1,93,69.29a1.89,1.89,0,0,1,1.22-.49Z"/><path id="Trazado_83" data-name="Trazado 83" class="cls-1" d="M106.35,68.66a1.6,1.6,0,0,1,1.23.57,1.75,1.75,0,0,1,.49,1.19,1.7,1.7,0,0,1-.53,1.24,1.66,1.66,0,0,1-1.19.54h-4.71a.62.62,0,0,0-.68.57.25.25,0,0,0,0,.08.7.7,0,0,0,.18.48.66.66,0,0,0,.51.21h3.09a3.55,3.55,0,0,1,1.57.34,3.86,3.86,0,0,1,1.26.93,4.45,4.45,0,0,1,.84,1.34,4.27,4.27,0,0,1,.3,1.58,4.38,4.38,0,0,1-.33,1.71,3.91,3.91,0,0,1-.9,1.34,4,4,0,0,1-1.37.87,4.56,4.56,0,0,1-1.75.32H99.72a1.63,1.63,0,0,1-1.2-.49A1.7,1.7,0,0,1,98,80.22,1.82,1.82,0,0,1,98.52,79a1.64,1.64,0,0,1,1.2-.59h4.63c.49,0,.74-.21.74-.65s-.25-.63-.74-.63h-3a3.59,3.59,0,0,1-1.55-.35,4.18,4.18,0,0,1-1.26-.91,4.37,4.37,0,0,1-1.13-3,4,4,0,0,1,.31-1.57A4.67,4.67,0,0,1,98.57,70,4.53,4.53,0,0,1,99.86,69a4.3,4.3,0,0,1,1.62-.37Z"/><path id="Trazado_84" data-name="Trazado 84" class="cls-1" d="M116.56,68.72a6.08,6.08,0,0,1,2.52.55,7.17,7.17,0,0,1,2.12,1.46,7.32,7.32,0,0,1,1.46,2.11,5.87,5.87,0,0,1,.55,2.5,1.75,1.75,0,0,1-.53,1.26,1.71,1.71,0,0,1-1.33.52h-7.28a3.09,3.09,0,0,0,3.23,1.2,3.35,3.35,0,0,0,.53-.19,3.85,3.85,0,0,1,.47-.19,1.37,1.37,0,0,1,.53-.08,1.85,1.85,0,0,1,1.63,1.08,1.79,1.79,0,0,1,.14,1,1.83,1.83,0,0,1-.48,1,4.22,4.22,0,0,1-1.65.83,8.21,8.21,0,0,1-1.91.26,5.45,5.45,0,0,1-2.52-.48,6.88,6.88,0,0,1-3.58-3.6,6.35,6.35,0,0,1-.53-2.54,6.09,6.09,0,0,1,.53-2.49,7.35,7.35,0,0,1,1.44-2.13A7,7,0,0,1,114,69.26,6.21,6.21,0,0,1,116.56,68.72Zm2.49,4.82a3.49,3.49,0,0,0-1.1-.92,3.05,3.05,0,0,0-2.8,0,3.71,3.71,0,0,0-1.09.92Z"/><path id="Trazado_85" data-name="Trazado 85" class="cls-1" d="M131,68.64a6.6,6.6,0,0,1,2.52.48,6.42,6.42,0,0,1,2.11,1.34,6.71,6.71,0,0,1,1.45,2,6.05,6.05,0,0,1,.55,2.54v5.07a1.73,1.73,0,0,1-.51,1.23,1.78,1.78,0,0,1-1.25.55,1.82,1.82,0,0,1-1.27-.48,1.54,1.54,0,0,1-.53-1.22V75.26a3.08,3.08,0,0,0-.24-1.19,3,3,0,0,0-.65-1,3.3,3.3,0,0,0-1-.66A3,3,0,0,0,131,72.2a2.88,2.88,0,0,0-1.15.23,3.36,3.36,0,0,0-1,.62,2.89,2.89,0,0,0-.65.93,2.68,2.68,0,0,0-.25,1.15v5a1.68,1.68,0,0,1-.55,1.24,1.71,1.71,0,0,1-1.25.54,1.87,1.87,0,0,1-1.27-.49,1.54,1.54,0,0,1-.54-1.2V75.27a6.92,6.92,0,0,1,.53-2.58,6.54,6.54,0,0,1,6.12-4Zm4.82-3.94a1,1,0,0,1,.41.7,1.09,1.09,0,0,1-.19.78,3.84,3.84,0,0,1-1.19,1.08,4.6,4.6,0,0,1-1.44.52,4.09,4.09,0,0,1-1.48,0,3.17,3.17,0,0,1-1.34-.62,2.14,2.14,0,0,0-1.56-.45,1.82,1.82,0,0,0-1.29.73,1,1,0,0,1-.67.42,1,1,0,0,1-.78-.2,1.05,1.05,0,0,1-.42-.7,1,1,0,0,1,.2-.78,3.84,3.84,0,0,1,1.19-1.08,4,4,0,0,1,3-.43,4,4,0,0,1,1.43.69,1.74,1.74,0,0,0,1.41.34,1.81,1.81,0,0,0,1.25-.75,1,1,0,0,1,.7-.41A1.08,1.08,0,0,1,135.86,64.7Z"/><path id="Trazado_86" data-name="Trazado 86" class="cls-1" d="M145.69,69a6.18,6.18,0,0,1,2.54.52,6.44,6.44,0,0,1,2.11,1.42A6.76,6.76,0,0,1,151.78,73a6.56,6.56,0,0,1,0,5.16,6.75,6.75,0,0,1-1.41,2.1,6.55,6.55,0,0,1-4.69,1.94,6.72,6.72,0,0,1-2.58-.49,6.44,6.44,0,0,1-3.53-3.48,6.57,6.57,0,0,1-.52-2.63,6.46,6.46,0,0,1,.51-2.56A6.63,6.63,0,0,1,141,71a6.88,6.88,0,0,1,2.11-1.42A7.09,7.09,0,0,1,145.69,69Zm0,3.58a3.14,3.14,0,0,0-1.18.23,3.37,3.37,0,0,0-1,.65,3,3,0,0,0-.92,2.19,2.89,2.89,0,0,0,.25,1.19,3.15,3.15,0,0,0,.67,1,3.43,3.43,0,0,0,1,.67,2.8,2.8,0,0,0,1.18.24,3,3,0,0,0,1.19-.24,3.24,3.24,0,0,0,1-.67,3.43,3.43,0,0,0,.66-1,2.88,2.88,0,0,0,.24-1.19,3.19,3.19,0,0,0-.9-2.14A3.1,3.1,0,0,0,145.69,72.55Z"/><path id="Trazado_87" data-name="Trazado 87" class="cls-1" d="M160.61,68.69a1.91,1.91,0,0,1,1.24.47,1.5,1.5,0,0,1,.56,1.2v5a3,3,0,0,0,.24,1.18,3.1,3.1,0,0,0,.64,1,3.21,3.21,0,0,0,1,.66,3.2,3.2,0,0,0,3.34-.58,2.82,2.82,0,0,0,.69-.91,2.74,2.74,0,0,0,.26-1.17v-5a1.75,1.75,0,0,1,1.74-1.76h0a1.9,1.9,0,0,1,1.26.48,1.52,1.52,0,0,1,.54,1.19V84.44a1.54,1.54,0,0,1-.54,1.2,1.87,1.87,0,0,1-1.26.49,1.84,1.84,0,0,1-1.24-.49,1.66,1.66,0,0,1-.54-1.29V81.2a4.45,4.45,0,0,1-1.44.56,7.4,7.4,0,0,1-1.63.18,6.39,6.39,0,0,1-2.55-.52A6.92,6.92,0,0,1,160.81,80a6.8,6.8,0,0,1-1.45-2.15,6.92,6.92,0,0,1-.53-2.73V70.44a1.75,1.75,0,0,1,1.74-1.75Z"/><path id="Trazado_88" data-name="Trazado 88" class="cls-1" d="M185.58,64.48a5.86,5.86,0,0,1,2.33.48,6.28,6.28,0,0,1,2,1.32,6.77,6.77,0,0,1,1.39,2,5.88,5.88,0,0,1,.52,2.44v5.07a5.62,5.62,0,0,1-.51,2.35,6.93,6.93,0,0,1-1.35,2,6.46,6.46,0,0,1-2,1.36,5.8,5.8,0,0,1-2.39.51h-3.73a1.86,1.86,0,0,1-1.3-.53,1.78,1.78,0,0,1-.56-1.33V66.34a1.83,1.83,0,0,1,.53-1.29,1.75,1.75,0,0,1,1.33-.57Zm-1.89,3.72v10h1.89a2.56,2.56,0,0,0,1-.2,2.42,2.42,0,0,0,.81-.53,2.61,2.61,0,0,0,.53-.79,2.5,2.5,0,0,0,.19-1V70.69a2.5,2.5,0,0,0-.19-1,2.39,2.39,0,0,0-.53-.79,2.45,2.45,0,0,0-.81-.54,2.55,2.55,0,0,0-1-.19Z"/><path id="Trazado_89" data-name="Trazado 89" class="cls-1" d="M199.67,68.72a6.08,6.08,0,0,1,2.52.55,7.22,7.22,0,0,1,2.13,1.46,7.52,7.52,0,0,1,1.46,2.11,6,6,0,0,1,.55,2.5,1.76,1.76,0,0,1-.54,1.26,1.69,1.69,0,0,1-1.33.52h-7.28a3.1,3.1,0,0,0,3.23,1.2,3.13,3.13,0,0,0,.54-.19,3.71,3.71,0,0,1,.46-.19,1.42,1.42,0,0,1,.54-.08,1.84,1.84,0,0,1,1.62,1.08,1.72,1.72,0,0,1-.34,1.93,4.25,4.25,0,0,1-1.64.83,8.3,8.3,0,0,1-1.92.26,5.5,5.5,0,0,1-2.52-.48,6.86,6.86,0,0,1-3.57-3.6,6.35,6.35,0,0,1-.53-2.54,6.09,6.09,0,0,1,.53-2.49A7.35,7.35,0,0,1,195,70.72a7,7,0,0,1,2.11-1.46A6.2,6.2,0,0,1,199.67,68.72Zm2.5,4.82a3.73,3.73,0,0,0-1.1-.92,3,3,0,0,0-2.81,0,3.55,3.55,0,0,0-1.08.92Z"/><path id="Trazado_90" data-name="Trazado 90" class="cls-1" d="M216.4,68.66a1.57,1.57,0,0,1,1.23.57,1.76,1.76,0,0,1,.5,1.19,1.67,1.67,0,0,1-.54,1.24,1.62,1.62,0,0,1-1.19.54h-4.71a.63.63,0,0,0-.68.57v.08a.7.7,0,0,0,.18.48.62.62,0,0,0,.5.21h3.1a3.55,3.55,0,0,1,1.57.34,3.86,3.86,0,0,1,1.26.93,4.45,4.45,0,0,1,.84,1.34,4.06,4.06,0,0,1,.29,1.58,4.37,4.37,0,0,1-.32,1.71,4.21,4.21,0,0,1-.9,1.34,4,4,0,0,1-1.37.87,4.6,4.6,0,0,1-1.75.32h-4.63a1.63,1.63,0,0,1-1.2-.49,1.75,1.75,0,0,1-.5-1.26,1.88,1.88,0,0,1,.5-1.25,1.62,1.62,0,0,1,1.2-.59h4.63c.49,0,.73-.21.73-.65s-.24-.63-.73-.63h-3a3.65,3.65,0,0,1-1.55-.35,4,4,0,0,1-1.25-.91,4.27,4.27,0,0,1-.84-1.34,4.68,4.68,0,0,1-.3-1.65,4,4,0,0,1,.32-1.57,4.28,4.28,0,0,1,.86-1.33,4.4,4.4,0,0,1,1.29-.92,4.21,4.21,0,0,1,1.61-.37Z"/><path id="Trazado_91" data-name="Trazado 91" class="cls-1" d="M227.41,68.75a6.47,6.47,0,0,1,2.31.71,6.61,6.61,0,0,1,1.86,1.46,6.81,6.81,0,0,1,1.23,2,6.17,6.17,0,0,1,.45,2.4V80.2a1.66,1.66,0,0,1-.54,1.25,1.75,1.75,0,0,1-2.48,0,2.06,2.06,0,0,1-.29-.37,1.34,1.34,0,0,0-.24.12l-.22.13a7.85,7.85,0,0,1-1.34.46,6.41,6.41,0,0,1-1.51.16,6.31,6.31,0,0,1-3.67-1.1A6.86,6.86,0,0,1,220.56,78a7.1,7.1,0,0,1-.42-1.28,6.33,6.33,0,0,1,0-2.74,7.47,7.47,0,0,1,.42-1.29A6.79,6.79,0,0,1,223,69.82a6.46,6.46,0,0,1,3.67-1.1h.4A2.31,2.31,0,0,1,227.41,68.75Zm-.8,9.66a3.19,3.19,0,0,0,1.19-.23,3,3,0,0,0,1-.65,3.06,3.06,0,0,0,.65-1,3,3,0,0,0,.25-1.21,2.77,2.77,0,0,0-.25-1.17,3.16,3.16,0,0,0-.67-1,3.11,3.11,0,0,0-1-.67,2.8,2.8,0,0,0-1.17-.25,2.71,2.71,0,0,0-1.15.25,3.18,3.18,0,0,0-1.64,1.65,3,3,0,0,0-.24,1.17,2.66,2.66,0,0,0,.25,1.18,3.22,3.22,0,0,0,.69,1,3.62,3.62,0,0,0,1,.66,2.72,2.72,0,0,0,1.12.24Z"/><path id="Trazado_92" data-name="Trazado 92" class="cls-1" d="M236.39,82a1.69,1.69,0,0,1-1.23-.48,1.87,1.87,0,0,1-.55-1.27V75.18a6.07,6.07,0,0,1,.56-2.48,6.64,6.64,0,0,1,3.5-3.39,7.16,7.16,0,0,1,2.54-.56,1.66,1.66,0,0,1,1.27.52,2,2,0,0,1,.56,1.26,1.65,1.65,0,0,1-.52,1.24,1.89,1.89,0,0,1-1.29.54,3,3,0,0,0-2.13.87,3.21,3.21,0,0,0-.66,1,3,3,0,0,0-.25,1.22v5A1.71,1.71,0,0,1,236.41,82Z"/><path id="Trazado_93" data-name="Trazado 93" class="cls-1" d="M245,82a1.7,1.7,0,0,1-1.23-.48,1.91,1.91,0,0,1-.55-1.27V75.18a6.25,6.25,0,0,1,.57-2.48,6.49,6.49,0,0,1,1.42-2,6.71,6.71,0,0,1,2.08-1.37,7.1,7.1,0,0,1,2.53-.56,1.68,1.68,0,0,1,1.28.52,2,2,0,0,1,.56,1.26,1.65,1.65,0,0,1-.52,1.24,1.9,1.9,0,0,1-1.29.54,3,3,0,0,0-2.13.87,3.08,3.08,0,0,0-.91,2.19v5a1.75,1.75,0,0,1-.53,1.18A1.79,1.79,0,0,1,245,82Z"/><path id="Trazado_94" data-name="Trazado 94" class="cls-1" d="M258.21,69a6.18,6.18,0,0,1,2.54.52,6.71,6.71,0,0,1,2.11,1.42A6.94,6.94,0,0,1,264.3,73a6.6,6.6,0,0,1,0,5.16,6.92,6.92,0,0,1-1.41,2.1,6.54,6.54,0,0,1-4.7,1.94,6.64,6.64,0,0,1-2.57-.49,6.41,6.41,0,0,1-3.53-3.48,6.58,6.58,0,0,1-.53-2.63A6.51,6.51,0,0,1,253.48,71a6.88,6.88,0,0,1,2.11-1.42A7.14,7.14,0,0,1,258.21,69Zm0,3.58a3.14,3.14,0,0,0-1.18.23,3.37,3.37,0,0,0-1,.65,3,3,0,0,0-.92,2.19,3,3,0,0,0,.24,1.19,3.18,3.18,0,0,0,.68,1,3.43,3.43,0,0,0,1,.67,2.8,2.8,0,0,0,1.18.24,3,3,0,0,0,1.19-.24,3.24,3.24,0,0,0,1-.67,3.43,3.43,0,0,0,.66-1,2.88,2.88,0,0,0,.24-1.19,3.19,3.19,0,0,0-.9-2.14A3.1,3.1,0,0,0,258.21,72.55Z"/><path id="Trazado_95" data-name="Trazado 95" class="cls-1" d="M268,64.56a1.69,1.69,0,0,1,1.25.52,2.05,2.05,0,0,1,.56,1.28V77.18a1.33,1.33,0,0,0,.35.93,1.19,1.19,0,0,0,.91.38,1.79,1.79,0,0,1,1.24.5,1.67,1.67,0,0,1,.14,2.36l0,0a1.87,1.87,0,0,1-1.16.62h-.38a4.31,4.31,0,0,1-1.81-.4,5.06,5.06,0,0,1-1.49-1.06,4.77,4.77,0,0,1-1-1.53,4.6,4.6,0,0,1-.36-1.83V66.25a1.89,1.89,0,0,1,.57-1.17A1.74,1.74,0,0,1,268,64.56Z"/><path id="Trazado_96" data-name="Trazado 96" class="cls-1" d="M275.62,64.56a1.65,1.65,0,0,1,1.24.52,2,2,0,0,1,.56,1.28V77.18a1.34,1.34,0,0,0,.36.93,1.18,1.18,0,0,0,.9.38,1.79,1.79,0,0,1,1.24.5,1.68,1.68,0,0,1,.15,2.36l0,0a1.93,1.93,0,0,1-1.17.62h-.38a4.34,4.34,0,0,1-1.81-.4,5.06,5.06,0,0,1-1.49-1.06,4.94,4.94,0,0,1-1-1.53,4.78,4.78,0,0,1-.36-1.83V66.25a1.94,1.94,0,0,1,.57-1.17A1.75,1.75,0,0,1,275.62,64.56Z"/><path id="Trazado_97" data-name="Trazado 97" class="cls-1" d="M286.79,69a6.18,6.18,0,0,1,2.54.52,6.59,6.59,0,0,1,2.11,1.42A6.76,6.76,0,0,1,292.88,73a6.65,6.65,0,0,1,0,5.16,7,7,0,0,1-1.42,2.1,6.56,6.56,0,0,1-4.7,1.94,6.67,6.67,0,0,1-2.57-.49,6.67,6.67,0,0,1-3.55-8.67,6.8,6.8,0,0,1,1.4-2.08,7,7,0,0,1,2.11-1.42A7.19,7.19,0,0,1,286.79,69Zm0,3.58a3.14,3.14,0,0,0-1.18.23,3.37,3.37,0,0,0-1,.65,3,3,0,0,0-.92,2.19,2.89,2.89,0,0,0,.25,1.19,3.15,3.15,0,0,0,.67,1,3.43,3.43,0,0,0,1,.67,2.8,2.8,0,0,0,1.18.24,3,3,0,0,0,1.19-.24,3.24,3.24,0,0,0,1-.67,3.43,3.43,0,0,0,.66-1,2.88,2.88,0,0,0,.24-1.19,3.19,3.19,0,0,0-.9-2.14A3.1,3.1,0,0,0,286.79,72.55Z"/><path id="Trazado_98" data-name="Trazado 98" class="cls-1" d="M306,64.48a5.86,5.86,0,0,1,2.33.48,6.28,6.28,0,0,1,2,1.32,6.77,6.77,0,0,1,1.39,2,5.73,5.73,0,0,1,.52,2.44v5.07a5.77,5.77,0,0,1-.5,2.35,6.77,6.77,0,0,1-1.36,2,6.35,6.35,0,0,1-2,1.36A5.77,5.77,0,0,1,306,82h-3.72a1.84,1.84,0,0,1-1.3-.53,1.78,1.78,0,0,1-.56-1.33V66.34a1.83,1.83,0,0,1,.53-1.29,1.75,1.75,0,0,1,1.33-.57Zm-1.89,3.72v10H306a2.56,2.56,0,0,0,1-.2,2.43,2.43,0,0,0,1.53-2.29V70.69a2.42,2.42,0,0,0-.72-1.76,2.3,2.3,0,0,0-.81-.54,2.55,2.55,0,0,0-1-.19Z"/><path id="Trazado_99" data-name="Trazado 99" class="cls-1" d="M315.54,64.61a1.6,1.6,0,0,1,1.21.53,1.77,1.77,0,0,1,0,2.49,1.61,1.61,0,0,1-1.21.54,1.88,1.88,0,0,1-1.3-.51,1.71,1.71,0,0,1-.5-1.35,1.69,1.69,0,0,1,.55-1.21A1.8,1.8,0,0,1,315.54,64.61Zm0,4.19a1.56,1.56,0,0,1,1.19.52,2.1,2.1,0,0,1,.53,1.26v9.69a1.73,1.73,0,0,1-.46,1.23,1.84,1.84,0,0,1-1.26.55,1.79,1.79,0,0,1-1.21-.44,1.91,1.91,0,0,1-.59-1.23V70.47a1.69,1.69,0,0,1,.57-1.18,1.92,1.92,0,0,1,1.23-.49Z"/><path id="Trazado_100" data-name="Trazado 100" class="cls-1" d="M325.39,68.72a6.54,6.54,0,0,1,2.58.52,6.83,6.83,0,0,1,2.1,1.42A6.59,6.59,0,0,1,332,75.35a6.71,6.71,0,0,1-.79,3.28,4.44,4.44,0,0,1,.79,2.71,4.69,4.69,0,0,1-.36,1.82,4.86,4.86,0,0,1-1,1.52,4.8,4.8,0,0,1-1.46,1.06,5.08,5.08,0,0,1-1.84.45h-6.95a1.51,1.51,0,0,1-1.16-.54,1.8,1.8,0,0,1-.49-1.24,1.76,1.76,0,0,1,.51-1.25,1.73,1.73,0,0,1,1.25-.56h6.65a1.21,1.21,0,0,0,.9-.37,1.44,1.44,0,0,0,.41-.92v0a6,6,0,0,1-1.24.49,8.09,8.09,0,0,1-4.52-.3A6.15,6.15,0,0,1,319.25,78a7.18,7.18,0,0,1-.49-2.67,6.22,6.22,0,0,1,.55-2.55,6.86,6.86,0,0,1,1.47-2.11,7.08,7.08,0,0,1,2.1-1.44A6.21,6.21,0,0,1,325.39,68.72Zm0,3.56a2.69,2.69,0,0,0-1.15.26,3.47,3.47,0,0,0-1,.68,3.55,3.55,0,0,0-.69,1,2.51,2.51,0,0,0-.25,1.15,2.76,2.76,0,0,0,.23,1.16,3.19,3.19,0,0,0,.64,1,3.3,3.3,0,0,0,1,.69,3,3,0,0,0,1.22.26,3.08,3.08,0,0,0,1.23-.25,2.83,2.83,0,0,0,1-.68,3.24,3.24,0,0,0,.64-1,2.78,2.78,0,0,0,.23-1.17,2.62,2.62,0,0,0-.26-1.2,3.1,3.1,0,0,0-.68-1,3.27,3.27,0,0,0-1-.65A2.72,2.72,0,0,0,325.39,72.28Z"/><path id="Trazado_101" data-name="Trazado 101" class="cls-1" d="M335.27,64.61a1.6,1.6,0,0,1,1.22.53,1.77,1.77,0,0,1,0,2.49,1.61,1.61,0,0,1-1.22.54,1.92,1.92,0,0,1-1.3-.51,1.78,1.78,0,0,1-.5-1.35A1.66,1.66,0,0,1,334,65.1,1.78,1.78,0,0,1,335.27,64.61Zm0,4.19a1.57,1.57,0,0,1,1.2.52,2.08,2.08,0,0,1,.53,1.26v9.69a1.73,1.73,0,0,1-.46,1.23,1.85,1.85,0,0,1-1.27.55,1.78,1.78,0,0,1-1.2-.44,2,2,0,0,1-.6-1.23V70.47a1.74,1.74,0,0,1,.58-1.18,1.92,1.92,0,0,1,1.22-.49Z"/><path id="Trazado_102" data-name="Trazado 102" class="cls-1" d="M340.42,64.48a1.74,1.74,0,0,1,1.29.53,2,2,0,0,1,.57,1.33v2.08h5.26a1.63,1.63,0,0,1,1.29.55,1.85,1.85,0,0,1,.49,1.28,1.79,1.79,0,0,1-.55,1.28,1.69,1.69,0,0,1-1.23.56h-5.26v3.12a3,3,0,0,0,.24,1.19,3.29,3.29,0,0,0,.64,1,2.89,2.89,0,0,0,1,.68,3,3,0,0,0,1.22.25,3.62,3.62,0,0,0,1.22-.19,2.49,2.49,0,0,0,.89-.58,2,2,0,0,1,1.27-.5,1.86,1.86,0,0,1,1.3.53,1.59,1.59,0,0,1,.41.56,1.91,1.91,0,0,1,.06,1.33,1.54,1.54,0,0,1-.36.57A6.73,6.73,0,0,1,348,81.48a6.11,6.11,0,0,1-2.46.49,7.39,7.39,0,0,1-2.68-.48,6.61,6.61,0,0,1-3.74-3.5,6.84,6.84,0,0,1-.59-2.78v-9a1.59,1.59,0,0,1,.56-1.23A1.9,1.9,0,0,1,340.42,64.48Z"/><path id="Trazado_103" data-name="Trazado 103" class="cls-1" d="M358.93,68.75a6.55,6.55,0,0,1,4.17,2.17,6.81,6.81,0,0,1,1.23,2,6.36,6.36,0,0,1,.46,2.4V80.2a1.7,1.7,0,0,1-.55,1.25,1.75,1.75,0,0,1-2.48,0,2.06,2.06,0,0,1-.29-.37,1.34,1.34,0,0,0-.24.12l-.22.13a7.85,7.85,0,0,1-1.34.46,6.41,6.41,0,0,1-1.51.16,6.31,6.31,0,0,1-3.67-1.1A6.94,6.94,0,0,1,352.08,78a7.1,7.1,0,0,1-.42-1.28,6.33,6.33,0,0,1,0-2.74,7.47,7.47,0,0,1,.42-1.29,6.79,6.79,0,0,1,2.41-2.87,6.51,6.51,0,0,1,3.67-1.1h.4A2.31,2.31,0,0,1,358.93,68.75Zm-.8,9.66a3.28,3.28,0,0,0,1.2-.23A3.08,3.08,0,0,0,361,76.56a3,3,0,0,0,.24-1.21,2.92,2.92,0,0,0-.24-1.17,3.22,3.22,0,0,0-1.66-1.65,2.82,2.82,0,0,0-2.32,0,3.18,3.18,0,0,0-1.64,1.65,2.92,2.92,0,0,0-.24,1.17,2.54,2.54,0,0,0,.26,1.18,3,3,0,0,0,.68,1,3.62,3.62,0,0,0,1,.66,2.72,2.72,0,0,0,1.12.24Z"/><path id="Trazado_104" data-name="Trazado 104" class="cls-1" d="M368.05,64.56a1.65,1.65,0,0,1,1.24.52,1.93,1.93,0,0,1,.56,1.28V77.18a1.3,1.3,0,0,0,.36.93,1.18,1.18,0,0,0,.9.38,1.81,1.81,0,0,1,1.25.5,1.66,1.66,0,0,1,.14,2.35l0,0a1.9,1.9,0,0,1-1.17.62h-.38a4.34,4.34,0,0,1-1.81-.4,5.19,5.19,0,0,1-1.49-1.06,4.91,4.91,0,0,1-1-1.53,4.61,4.61,0,0,1-.37-1.83V66.25a1.91,1.91,0,0,1,.57-1.17A1.75,1.75,0,0,1,368.05,64.56Z"/></g><g id="Grupo_29" data-name="Grupo 29"><g id="Grupo_28" data-name="Grupo 28"><g id="Grupo_26" data-name="Grupo 26"><path id="Trazado_105" data-name="Trazado 105" class="cls-2" d="M33.81,79.29a6.79,6.79,0,0,1-3.64-1.05L5.43,62.55a6.69,6.69,0,0,1-3.14-5.7V24.72A6.69,6.69,0,0,1,5.43,19L30.17,3.33a6.82,6.82,0,0,1,7.27,0L62.18,19a6.69,6.69,0,0,1,3.14,5.7V56.85a6.69,6.69,0,0,1-3.14,5.7L37.44,78.24A6.79,6.79,0,0,1,33.81,79.29Zm-1.11-72L8,23a2,2,0,0,0-1,1.73V56.86a2,2,0,0,0,1,1.73L32.7,74.28a2.1,2.1,0,0,0,2.21,0L59.65,58.59a2,2,0,0,0,1-1.73V24.72a2.06,2.06,0,0,0-1-1.73L34.91,7.31A2.05,2.05,0,0,0,32.7,7.31Z"/></g><g id="Grupo_27" data-name="Grupo 27"><path id="Trazado_106" data-name="Trazado 106" class="cls-2" d="M33.81,81.58a9.11,9.11,0,0,1-4.87-1.4L4.2,64.49A9,9,0,0,1,0,56.86V24.72a9,9,0,0,1,4.2-7.63L28.94,1.41a9.1,9.1,0,0,1,9.73,0L63.41,17.09a9,9,0,0,1,4.2,7.63V56.86a9,9,0,0,1-4.2,7.63L38.67,80.18A9.1,9.1,0,0,1,33.81,81.58Zm0-77a4.54,4.54,0,0,0-2.41.7L6.66,21a4.44,4.44,0,0,0-2.08,3.75V56.86a4.44,4.44,0,0,0,2.08,3.76L31.4,76.3a4.6,4.6,0,0,0,4.82,0L61,60.62A4.42,4.42,0,0,0,63,56.86V24.73A4.43,4.43,0,0,0,61,21L36.21,5.28a4.54,4.54,0,0,0-2.4-.7Zm0,72.3a4.39,4.39,0,0,1-2.34-.67L6.73,60.52a4.31,4.31,0,0,1-2-3.66V24.72a4.34,4.34,0,0,1,2-3.67L31.47,5.37a4.38,4.38,0,0,1,4.67,0L60.88,21.05a4.34,4.34,0,0,1,2,3.67V56.86a4.34,4.34,0,0,1-2,3.67L36.14,76.21a4.3,4.3,0,0,1-2.34.67ZM9.31,56.72l24.5,15.54,24.5-15.54V24.86L33.81,9.32,9.31,24.86Z"/></g></g></g><g id="Grupo_33" data-name="Grupo 33"><g id="Grupo_32" data-name="Grupo 32"><g id="Grupo_30" data-name="Grupo 30"><path id="Trazado_107" data-name="Trazado 107" class="cls-2" d="M26.54,56.67a2.35,2.35,0,0,1-1.25-4.34L61.73,29.68a2.35,2.35,0,1,1,2.5,4h0L27.79,56.32A2.41,2.41,0,0,1,26.54,56.67Z"/></g><g id="Grupo_31" data-name="Grupo 31"><path id="Trazado_108" data-name="Trazado 108" class="cls-2" d="M26.54,59a4.64,4.64,0,0,1-2.46-8.59L60.52,27.73a4.64,4.64,0,1,1,4.92,7.88h0L29,58.26A4.66,4.66,0,0,1,26.54,59ZM61.73,29.68l1.21,1.95L26.5,54.28l0,.1h0L63,31.72Z"/></g></g></g><g id="Grupo_37" data-name="Grupo 37"><g id="Grupo_36" data-name="Grupo 36"><g id="Grupo_34" data-name="Grupo 34"><path id="Trazado_109" data-name="Trazado 109" class="cls-2" d="M25.89,74.7h0a2.36,2.36,0,0,1-2.35-2.36l.2-48.63a2.35,2.35,0,0,1,2.36-2.34h0a2.36,2.36,0,0,1,2.35,2.36l-.2,48.63A2.36,2.36,0,0,1,25.89,74.7Z"/></g><g id="Grupo_35" data-name="Grupo 35"><path id="Trazado_110" data-name="Trazado 110" class="cls-2" d="M25.89,77h0a4.65,4.65,0,0,1-4.64-4.65h0l.2-48.63a4.65,4.65,0,0,1,9.3,0l-.2,48.63A4.65,4.65,0,0,1,25.89,77ZM26,23.72l-.2,48.63.06.05s.06,0,.07-.05h0l.2-48.63Z"/></g></g></g><g id="Grupo_41" data-name="Grupo 41"><g id="Grupo_40" data-name="Grupo 40"><g id="Grupo_38" data-name="Grupo 38"><path id="Trazado_111" data-name="Trazado 111" class="cls-2" d="M50,41.28a2.38,2.38,0,0,1-1.27-.37l-35-22.43a2.35,2.35,0,0,1,2.55-4L51.24,37A2.35,2.35,0,0,1,50,41.28Z"/></g><g id="Grupo_39" data-name="Grupo 39"><path id="Trazado_112" data-name="Trazado 112" class="cls-2" d="M50,43.57a4.65,4.65,0,0,1-2.51-.73l-35-22.43A4.63,4.63,0,0,1,11,14v0a4.67,4.67,0,0,1,6.43-1.4L52.48,35A4.64,4.64,0,0,1,50,43.57ZM15,16.46l-.1.05L50,39A.06.06,0,0,0,50,39Z"/></g></g></g></g></g></g></svg>