<svg xmlns="http://www.w3.org/2000/svg" viewBox="0 0 319.22 93.36"><defs><style>.cls-1{fill:#051122;}</style></defs><g id="Capa_2" data-name="Capa 2"><g id="Capa_1-2" data-name="Capa 1"><g id="Grupo_69" data-name="Grupo 69"><g id="Grupo_67" data-name="Grupo 67"><path id="Trazado_193" data-name="Trazado 193" class="cls-1" d="M44.52,53.65a6.62,6.62,0,0,1,2,4.86,6.94,6.94,0,0,1-2,5,6.82,6.82,0,0,1-4.86,2,7.15,7.15,0,0,1-5-2L13.92,42.39V58.46a6.57,6.57,0,0,1-2,4.86,7.1,7.1,0,0,1-9.87,0,6.51,6.51,0,0,1-2-4.86V6.88A6.57,6.57,0,0,1,2.05,2.07,6.93,6.93,0,0,1,13.92,6.88V23L34.7,2.07a6.94,6.94,0,0,1,5-2,6.87,6.87,0,0,1,4.86,11.77L23.64,32.66Z"/><path id="Trazado_194" data-name="Trazado 194" class="cls-1" d="M79.52,15.88a23.87,23.87,0,0,1,8.65,2.66,24.41,24.41,0,0,1,7,5.48,25.65,25.65,0,0,1,4.6,7.57,23.89,23.89,0,0,1,1.69,9V58.66a6.24,6.24,0,0,1-2,4.71A6.55,6.55,0,0,1,89,62a6.08,6.08,0,0,0-.92.46c-.27.17-.54.32-.82.46a26.87,26.87,0,0,1-5,1.74,24.7,24.7,0,0,1-5.62.62,23.64,23.64,0,0,1-13.72-4.15,25.54,25.54,0,0,1-9-10.69,27.11,27.11,0,0,1-1.59-4.81,23.58,23.58,0,0,1,0-10.24,27.11,27.11,0,0,1,1.59-4.81,25.17,25.17,0,0,1,9-10.75,23.92,23.92,0,0,1,13.72-4.09h1.48A10.67,10.67,0,0,1,79.52,15.88ZM76.56,52A11.53,11.53,0,0,0,81,51.14a11.05,11.05,0,0,0,3.63-2.4A11.88,11.88,0,0,0,87.1,45.1,11.12,11.12,0,0,0,88,40.55a10.68,10.68,0,0,0-.92-4.35A11.92,11.92,0,0,0,80.91,30a10.52,10.52,0,0,0-4.35-.92,10.14,10.14,0,0,0-4.3.92,12,12,0,0,0-6.14,6.19,10.68,10.68,0,0,0-.92,4.35,10.34,10.34,0,0,0,1,4.45,12,12,0,0,0,2.56,3.63,12.46,12.46,0,0,0,3.63,2.46,10.15,10.15,0,0,0,4.2.92Z"/><path id="Trazado_195" data-name="Trazado 195" class="cls-1" d="M131.62,15.47A25.27,25.27,0,0,1,141,17.26a24.28,24.28,0,0,1,7.88,5,25.2,25.2,0,0,1,5.43,7.62,22.37,22.37,0,0,1,2,9.52V58.36A6.38,6.38,0,0,1,154.5,63a6.61,6.61,0,0,1-4.66,2,6.83,6.83,0,0,1-4.76-1.79,5.81,5.81,0,0,1-2-4.55V40.24a11.77,11.77,0,0,0-.87-4.46,10.81,10.81,0,0,0-2.46-3.63,12.69,12.69,0,0,0-3.68-2.46,11.33,11.33,0,0,0-4.56-.92,10.94,10.94,0,0,0-4.3.87,12.18,12.18,0,0,0-3.58,2.3,10.76,10.76,0,0,0-2.46,3.48,10.49,10.49,0,0,0-.92,4.3V58.35A6.32,6.32,0,0,1,118.21,63a6.55,6.55,0,0,1-4.7,2,6.75,6.75,0,0,1-4.71-1.84,5.81,5.81,0,0,1-2-4.5V40.24a25.83,25.83,0,0,1,2-9.62,24.47,24.47,0,0,1,22.87-15.15Z"/><path id="Trazado_196" data-name="Trazado 196" class="cls-1" d="M168.47,0A5.11,5.11,0,0,1,171,.48,8,8,0,0,1,173.22,2a6.22,6.22,0,0,1,1.49,2.2,7.09,7.09,0,0,1,.51,2.61V18.54a23.39,23.39,0,0,1,7.42-2.4,25.61,25.61,0,0,1,7.62,0,26,26,0,0,1,7.37,2.25,23.66,23.66,0,0,1,12,12.48,24.72,24.72,0,0,1,1.79,9.68,23.44,23.44,0,0,1-2,9.62,25.58,25.58,0,0,1-5.37,7.88,25,25,0,0,1-7.88,5.32,23.75,23.75,0,0,1-9.52,1.95,23.12,23.12,0,0,1-9.41-2,26.11,26.11,0,0,1-13.41-13.25,22.84,22.84,0,0,1-2.05-9.52V6.26a5.28,5.28,0,0,1,.61-2.4,7.93,7.93,0,0,1,1.54-2,7.28,7.28,0,0,1,2.1-1.38A4.87,4.87,0,0,1,168.47,0Zm6.75,40.53a11,11,0,0,0,.92,4.45,11.25,11.25,0,0,0,2.51,3.63,12.59,12.59,0,0,0,3.63,2.46,10.86,10.86,0,0,0,8.75,0,12.41,12.41,0,0,0,3.69-2.46A11.58,11.58,0,0,0,197.23,45a11.28,11.28,0,0,0,0-8.9,11.58,11.58,0,0,0-2.51-3.63A12.54,12.54,0,0,0,191,30a10.68,10.68,0,0,0-4.35-.92,10.16,10.16,0,0,0-4.4,1,13,13,0,0,0-3.63,2.56,12,12,0,0,0-2.51,3.69,10.5,10.5,0,0,0-.92,4.24Z"/><path id="Trazado_197" data-name="Trazado 197" class="cls-1" d="M242.36,15.88A24,24,0,0,1,251,18.54,24.69,24.69,0,0,1,258,24a26.08,26.08,0,0,1,4.6,7.57,24.09,24.09,0,0,1,1.69,9V58.66a6.25,6.25,0,0,1-2.05,4.71A6.55,6.55,0,0,1,251.87,62a6.08,6.08,0,0,0-.92.46,8.2,8.2,0,0,1-.82.46,27,27,0,0,1-5,1.74,24.85,24.85,0,0,1-5.63.62,23.66,23.66,0,0,1-13.72-4.15,25.62,25.62,0,0,1-9-10.69,27.11,27.11,0,0,1-1.59-4.81,23.58,23.58,0,0,1,0-10.24,27.11,27.11,0,0,1,1.59-4.81,25.17,25.17,0,0,1,9-10.75,23.92,23.92,0,0,1,13.72-4.09H241A10.83,10.83,0,0,1,242.36,15.88Zm-3,36.13a11.5,11.5,0,0,0,4.45-.87,11.09,11.09,0,0,0,3.64-2.4,11.85,11.85,0,0,0,2.45-3.64,11.12,11.12,0,0,0,.92-4.55,10.68,10.68,0,0,0-.92-4.35A11.89,11.89,0,0,0,243.74,30a10.52,10.52,0,0,0-4.35-.92,10.14,10.14,0,0,0-4.3.92,12.08,12.08,0,0,0-3.63,2.5A12,12,0,0,0,229,36.2a10.68,10.68,0,0,0-.92,4.35A10.34,10.34,0,0,0,229,45a12,12,0,0,0,2.56,3.63,12.59,12.59,0,0,0,3.63,2.46,10.15,10.15,0,0,0,4.2.92Z"/><path id="Trazado_198" data-name="Trazado 198" class="cls-1" d="M294.45,15.47a25.27,25.27,0,0,1,9.42,1.79,24.28,24.28,0,0,1,7.88,5,25,25,0,0,1,5.42,7.62,22.23,22.23,0,0,1,2.05,9.52V58.36a6.38,6.38,0,0,1-1.89,4.6,6.61,6.61,0,0,1-4.66,2,6.83,6.83,0,0,1-4.76-1.79,5.85,5.85,0,0,1-2-4.55V40.24a11.58,11.58,0,0,0-.87-4.46,10.78,10.78,0,0,0-2.45-3.63,12.74,12.74,0,0,0-3.69-2.46,11.32,11.32,0,0,0-4.55-.92,10.94,10.94,0,0,0-4.3.87,12.23,12.23,0,0,0-3.59,2.3A10.73,10.73,0,0,0,284,35.42a10.5,10.5,0,0,0-.93,4.3V58.35A6.31,6.31,0,0,1,281,63a6.57,6.57,0,0,1-4.71,2,6.76,6.76,0,0,1-4.71-1.84,5.77,5.77,0,0,1-2-4.5V40.24a25.64,25.64,0,0,1,2-9.62,24.47,24.47,0,0,1,22.87-15.15Z"/></g><g id="Grupo_68" data-name="Grupo 68"><path id="Trazado_199" data-name="Trazado 199" class="cls-1" d="M6.92,69.84a6.47,6.47,0,0,1,2.53.52,6.54,6.54,0,0,1,2.16,1.44,6.91,6.91,0,0,1,1.5,2.13,6.18,6.18,0,0,1,.57,2.64v5.49a6.22,6.22,0,0,1-.55,2.55,7.21,7.21,0,0,1-1.47,2.15,6.89,6.89,0,0,1-2.15,1.48,6.24,6.24,0,0,1-2.59.55h-4a2,2,0,0,1-1.41-.58,1.86,1.86,0,0,1-.6-1.44V71.85a2,2,0,0,1,.57-1.39,1.91,1.91,0,0,1,1.44-.62Zm-2,4V84.76H6.92A2.78,2.78,0,0,0,8,84.55,2.59,2.59,0,0,0,8.86,84a2.83,2.83,0,0,0,.58-.86,2.88,2.88,0,0,0,.2-1V76.57a2.88,2.88,0,0,0-.2-1,2.83,2.83,0,0,0-.58-.86A2.59,2.59,0,0,0,8,74.08a2.78,2.78,0,0,0-1.06-.21Z"/><path id="Trazado_200" data-name="Trazado 200" class="cls-1" d="M17.21,70a1.72,1.72,0,0,1,1.32.58,1.94,1.94,0,0,1,0,2.7,1.79,1.79,0,0,1-1.32.58,2.08,2.08,0,0,1-1.41-.55,1.92,1.92,0,0,1-.55-1.47,1.76,1.76,0,0,1,.61-1.3A1.88,1.88,0,0,1,17.21,70Zm0,4.54a1.68,1.68,0,0,1,1.29.56,2.14,2.14,0,0,1,.57,1.36V87a1.85,1.85,0,0,1-.5,1.34,2,2,0,0,1-1.36.59,2,2,0,0,1-1.31-.47,2.13,2.13,0,0,1-.65-1.34V76.33a1.79,1.79,0,0,1,.63-1.27A2,2,0,0,1,17.21,74.53Z"/><path id="Trazado_201" data-name="Trazado 201" class="cls-1" d="M30.38,74.38a1.68,1.68,0,0,1,1.33.61,2,2,0,0,1,.54,1.29,1.84,1.84,0,0,1-.58,1.34,1.75,1.75,0,0,1-1.29.58h-5.1a.69.69,0,0,0-.74.63v.08a.72.72,0,0,0,.19.52.68.68,0,0,0,.55.23h3.35a3.83,3.83,0,0,1,1.7.37,4.25,4.25,0,0,1,1.37,1,4.88,4.88,0,0,1,.9,1.46,4.51,4.51,0,0,1,.33,1.7,4.57,4.57,0,0,1-.36,1.86,4.3,4.3,0,0,1-1,1.45,4.57,4.57,0,0,1-1.49,1,5.11,5.11,0,0,1-1.9.34h-5a1.76,1.76,0,0,1-1.3-.53,1.85,1.85,0,0,1-.53-1.37,2,2,0,0,1,.53-1.35,1.8,1.8,0,0,1,1.3-.64h5c.53,0,.8-.23.8-.71s-.26-.68-.8-.68H25a3.78,3.78,0,0,1-1.68-.37,4.45,4.45,0,0,1-1.36-1,4.68,4.68,0,0,1-1.23-3.24,4.34,4.34,0,0,1,.34-1.7A4.7,4.7,0,0,1,22,75.78a4.47,4.47,0,0,1,3.15-1.4Z"/><path id="Trazado_202" data-name="Trazado 202" class="cls-1" d="M41.44,74.44a6.61,6.61,0,0,1,2.73.59,7.78,7.78,0,0,1,3.88,3.87,6.22,6.22,0,0,1,.59,2.71A1.9,1.9,0,0,1,48.07,83a1.85,1.85,0,0,1-1.44.56H38.74a3.35,3.35,0,0,0,3.5,1.3,4,4,0,0,0,.58-.2,4.4,4.4,0,0,1,.5-.21,1.84,1.84,0,0,1,.57-.09,2,2,0,0,1,1.77,1.17,1.86,1.86,0,0,1-.37,2.09,4.64,4.64,0,0,1-1.78.91,9.73,9.73,0,0,1-2.08.28,6.1,6.1,0,0,1-2.73-.52,7.48,7.48,0,0,1-3.87-3.9,6.9,6.9,0,0,1-.58-2.76,6.62,6.62,0,0,1,.58-2.7,8,8,0,0,1,1.56-2.3A7.64,7.64,0,0,1,38.67,75,6.45,6.45,0,0,1,41.44,74.44Zm2.7,5.22a4,4,0,0,0-1.19-1,3,3,0,0,0-1.51-.37,3.15,3.15,0,0,0-1.53.37,3.87,3.87,0,0,0-1.17,1Z"/><path id="Trazado_203" data-name="Trazado 203" class="cls-1" d="M57.13,74.35a7.12,7.12,0,0,1,2.73.52,6.92,6.92,0,0,1,2.28,1.45,7.18,7.18,0,0,1,1.57,2.21,6.56,6.56,0,0,1,.6,2.76v5.48a1.91,1.91,0,0,1-.55,1.34,1.93,1.93,0,0,1-1.35.59A2,2,0,0,1,61,88.18a1.69,1.69,0,0,1-.58-1.32V81.53a3.38,3.38,0,0,0-.25-1.3,3.42,3.42,0,0,0-.71-1,3.77,3.77,0,0,0-1.07-.71,3.31,3.31,0,0,0-2.57,0,3.7,3.7,0,0,0-1,.67,3.24,3.24,0,0,0-.71,1,3,3,0,0,0-.27,1.25v5.4a1.8,1.8,0,0,1-.59,1.35,1.9,1.9,0,0,1-1.36.58,2,2,0,0,1-1.37-.54,1.66,1.66,0,0,1-.59-1.3V81.53a7.36,7.36,0,0,1,.58-2.78,7.08,7.08,0,0,1,6.63-4.4Zm5.22-4.27a1.09,1.09,0,0,1,.44.75,1.18,1.18,0,0,1-.21.85,3.88,3.88,0,0,1-1.28,1.17,4.64,4.64,0,0,1-1.56.56,4.3,4.3,0,0,1-1.6,0,3.46,3.46,0,0,1-1.46-.66A2.28,2.28,0,0,0,55,72.23a1.91,1.91,0,0,0-1.4.78,1,1,0,0,1-.72.46,1.09,1.09,0,0,1-.85-.22,1.15,1.15,0,0,1-.46-.76,1,1,0,0,1,.23-.84,4.16,4.16,0,0,1,1.29-1.18,4.51,4.51,0,0,1,1.57-.54,4.42,4.42,0,0,1,1.66.08,4.29,4.29,0,0,1,1.55.75,1.92,1.92,0,0,0,1.52.37,2,2,0,0,0,1.36-.82,1.15,1.15,0,0,1,.76-.44A1.18,1.18,0,0,1,62.35,70.08Z"/><path id="Trazado_204" data-name="Trazado 204" class="cls-1" d="M73,74.7a6.88,6.88,0,0,1,2.75.57A7.11,7.11,0,0,1,78,76.81a7.55,7.55,0,0,1,1.55,2.28,7.16,7.16,0,0,1-6.59,10,7.37,7.37,0,0,1-2.79-.54,7,7,0,0,1-3.83-3.76,7.14,7.14,0,0,1-.56-2.85,6.92,6.92,0,0,1,.55-2.77,7.17,7.17,0,0,1,1.51-2.26,7.44,7.44,0,0,1,2.29-1.54A7.84,7.84,0,0,1,73,74.7Zm0,3.89a3.32,3.32,0,0,0-1.28.25,3.39,3.39,0,0,0-1,.7,3.27,3.27,0,0,0-1,2.37,3.17,3.17,0,0,0,.27,1.29,3.39,3.39,0,0,0,.73,1.07,3.66,3.66,0,0,0,1,.73,3,3,0,0,0,1.28.26A3.2,3.2,0,0,0,74.29,85a3.31,3.31,0,0,0,1-.73,3.51,3.51,0,0,0,.71-1.07,3.14,3.14,0,0,0,.27-1.29,3.46,3.46,0,0,0-1-2.31A3.31,3.31,0,0,0,73,78.59Z"/><path id="Trazado_205" data-name="Trazado 205" class="cls-1" d="M89.16,74.41a2.05,2.05,0,0,1,1.35.5,1.62,1.62,0,0,1,.61,1.3v5.37a3.23,3.23,0,0,0,.94,2.31,3.46,3.46,0,0,0,1.06.71,3.28,3.28,0,0,0,1.32.27,3.25,3.25,0,0,0,1.23-.24A3.4,3.4,0,0,0,96.73,84a3.28,3.28,0,0,0,.75-1,2.94,2.94,0,0,0,.28-1.27V76.3a1.89,1.89,0,0,1,1.89-1.9h0a2,2,0,0,1,1.36.52,1.64,1.64,0,0,1,.59,1.29V91.46a1.66,1.66,0,0,1-.59,1.3,2,2,0,0,1-1.36.54,1.92,1.92,0,0,1-1.34-.54,1.79,1.79,0,0,1-.59-1.4V88a4.88,4.88,0,0,1-1.56.61,8.05,8.05,0,0,1-1.76.2,6.89,6.89,0,0,1-2.76-.57,7.32,7.32,0,0,1-2.3-1.54,7.1,7.1,0,0,1-1.57-2.33,7.29,7.29,0,0,1-.58-3V76.31a1.89,1.89,0,0,1,1.88-1.9Z"/><path id="Trazado_206" data-name="Trazado 206" class="cls-1" d="M116.21,69.84a6.47,6.47,0,0,1,2.53.52,6.69,6.69,0,0,1,2.17,1.44,7.27,7.27,0,0,1,1.5,2.13,6.32,6.32,0,0,1,.56,2.64v5.49a6.22,6.22,0,0,1-.55,2.55A7.21,7.21,0,0,1,121,86.76a6.89,6.89,0,0,1-2.15,1.48,6.24,6.24,0,0,1-2.59.55h-4a2,2,0,0,1-1.41-.58,1.86,1.86,0,0,1-.6-1.44V71.85a2,2,0,0,1,.57-1.39,1.91,1.91,0,0,1,1.44-.62Zm-2,4V84.76h2a2.75,2.75,0,0,0,1.06-.21,2.59,2.59,0,0,0,.88-.58,2.66,2.66,0,0,0,.58-.86,2.52,2.52,0,0,0,.2-1V76.57a2.52,2.52,0,0,0-.2-1,2.66,2.66,0,0,0-.58-.86,2.59,2.59,0,0,0-.88-.58,2.78,2.78,0,0,0-1.06-.21Z"/><path id="Trazado_207" data-name="Trazado 207" class="cls-1" d="M131.48,74.44a6.61,6.61,0,0,1,2.73.59,7.77,7.77,0,0,1,2.3,1.59,7.86,7.86,0,0,1,1.59,2.28,6.52,6.52,0,0,1,.59,2.71,1.91,1.91,0,0,1-.58,1.37,1.84,1.84,0,0,1-1.44.56h-7.89a3.36,3.36,0,0,0,3.5,1.3,4,4,0,0,0,.58-.2,4.4,4.4,0,0,1,.5-.21,1.9,1.9,0,0,1,.58-.09,2,2,0,0,1,1.76,1.17,1.86,1.86,0,0,1-.37,2.09,4.57,4.57,0,0,1-1.78.91,9.56,9.56,0,0,1-2.07.28,6.1,6.1,0,0,1-2.73-.52,7.48,7.48,0,0,1-3.87-3.9,6.9,6.9,0,0,1-.58-2.76,6.62,6.62,0,0,1,.58-2.7,7.61,7.61,0,0,1,1.56-2.3A7.52,7.52,0,0,1,128.72,75,6.44,6.44,0,0,1,131.48,74.44Zm2.7,5.22a3.91,3.91,0,0,0-1.18-1,3.33,3.33,0,0,0-3,0,3.91,3.91,0,0,0-1.18,1Z"/><path id="Trazado_208" data-name="Trazado 208" class="cls-1" d="M149.6,74.38a1.68,1.68,0,0,1,1.34.61,1.9,1.9,0,0,1,.53,1.29,1.84,1.84,0,0,1-.58,1.34,1.71,1.71,0,0,1-1.29.58h-5.1a.68.68,0,0,0-.73.63.25.25,0,0,0,0,.08.75.75,0,0,0,.2.52.67.67,0,0,0,.54.23h3.36a3.83,3.83,0,0,1,1.7.37,4.21,4.21,0,0,1,1.36,1,4.72,4.72,0,0,1,.91,1.46,4.51,4.51,0,0,1,.33,1.7,4.93,4.93,0,0,1-.36,1.86,4.33,4.33,0,0,1-1,1.45,4.52,4.52,0,0,1-1.48,1,5.15,5.15,0,0,1-1.9.34h-5a1.79,1.79,0,0,1-1.3-.53,1.89,1.89,0,0,1-.53-1.37,2,2,0,0,1,.53-1.35,1.83,1.83,0,0,1,1.3-.64h5c.53,0,.8-.23.8-.71s-.27-.68-.8-.68h-3.27a3.73,3.73,0,0,1-1.67-.37,4.33,4.33,0,0,1-1.36-1,4.72,4.72,0,0,1-.91-1.46,4.89,4.89,0,0,1-.33-1.78,4.63,4.63,0,0,1,1.28-3.13,4.49,4.49,0,0,1,1.4-1,4.57,4.57,0,0,1,1.75-.4Z"/><path id="Trazado_209" data-name="Trazado 209" class="cls-1" d="M161.52,74.46a7.12,7.12,0,0,1,2.51.77A7.18,7.18,0,0,1,167.38,79a6.79,6.79,0,0,1,.49,2.6v5.25a1.82,1.82,0,0,1-.59,1.36,1.9,1.9,0,0,1-2.69,0,1.77,1.77,0,0,1-.31-.41A1.74,1.74,0,0,0,164,88l-.24.13a7.31,7.31,0,0,1-1.45.5,7.4,7.4,0,0,1-1.63.18,6.88,6.88,0,0,1-4-1.2,7.42,7.42,0,0,1-2.61-3.1,8.66,8.66,0,0,1-.45-1.39,6.77,6.77,0,0,1,0-3,8.35,8.35,0,0,1,.45-1.39,7.35,7.35,0,0,1,2.61-3.12,7,7,0,0,1,4-1.18h.43A2.68,2.68,0,0,1,161.52,74.46Zm-.86,10.47A3.27,3.27,0,0,0,163,84a3.42,3.42,0,0,0,.71-1,3.35,3.35,0,0,0,.27-1.32,3,3,0,0,0-.27-1.26,3.44,3.44,0,0,0-1.8-1.8,3.16,3.16,0,0,0-1.26-.26,2.94,2.94,0,0,0-1.24.26,3.86,3.86,0,0,0-1.06.73,3.54,3.54,0,0,0-.72,1.07,3,3,0,0,0-.27,1.26,3.22,3.22,0,0,0,.28,1.29,3.51,3.51,0,0,0,.74,1,3.59,3.59,0,0,0,1.06.71,3,3,0,0,0,1.22.28Z"/><path id="Trazado_210" data-name="Trazado 210" class="cls-1" d="M171.25,88.82a1.85,1.85,0,0,1-1.33-.52,2,2,0,0,1-.59-1.38V81.44a6.57,6.57,0,0,1,.61-2.69,7.15,7.15,0,0,1,3.79-3.68,7.85,7.85,0,0,1,2.74-.61,1.84,1.84,0,0,1,1.38.57,2.09,2.09,0,0,1,.61,1.36,1.8,1.8,0,0,1-.56,1.35,2.1,2.1,0,0,1-1.4.58,3.21,3.21,0,0,0-2.31.94,3.4,3.4,0,0,0-.71,1.06,3,3,0,0,0-.27,1.32V87a1.87,1.87,0,0,1-2,1.78Z"/><path id="Trazado_211" data-name="Trazado 211" class="cls-1" d="M180.57,88.82a1.86,1.86,0,0,1-1.34-.52,2,2,0,0,1-.59-1.38V81.44a6.57,6.57,0,0,1,.61-2.69,7.17,7.17,0,0,1,1.54-2.2A7.33,7.33,0,0,1,183,75.07a7.85,7.85,0,0,1,2.75-.61,1.84,1.84,0,0,1,1.38.57,2.16,2.16,0,0,1,.61,1.36,1.81,1.81,0,0,1-.57,1.35,2.08,2.08,0,0,1-1.4.58,3.23,3.23,0,0,0-2.31.94,3.59,3.59,0,0,0-.71,1.06,3.28,3.28,0,0,0-.27,1.32V87a1.86,1.86,0,0,1-1.93,1.78h0Z"/><path id="Trazado_212" data-name="Trazado 212" class="cls-1" d="M194.89,74.7a6.89,6.89,0,0,1,2.76.57,7.07,7.07,0,0,1,2.28,1.54,7.4,7.4,0,0,1,1.56,2.28,7.18,7.18,0,0,1,0,5.59A7.5,7.5,0,0,1,200,87a7.1,7.1,0,0,1-5.09,2.11,7.45,7.45,0,0,1-2.79-.54,7,7,0,0,1-3.82-3.76,7.33,7.33,0,0,1,0-5.62,7.34,7.34,0,0,1,1.51-2.26,7.57,7.57,0,0,1,2.29-1.54A7.88,7.88,0,0,1,194.89,74.7Zm0,3.89a3.23,3.23,0,0,0-1.27.25,3.43,3.43,0,0,0-1.06.7,3.26,3.26,0,0,0-1,2.37,3.14,3.14,0,0,0,.27,1.29,3.54,3.54,0,0,0,.72,1.07,3.71,3.71,0,0,0,1.06.73,2.92,2.92,0,0,0,1.27.26,3.2,3.2,0,0,0,2.34-1A3.73,3.73,0,0,0,198,83.2a3,3,0,0,0,.26-1.29,3.45,3.45,0,0,0-1-2.31A3.31,3.31,0,0,0,194.89,78.59Z"/><path id="Trazado_213" data-name="Trazado 213" class="cls-1" d="M205.45,69.93a1.8,1.8,0,0,1,1.35.56,2.21,2.21,0,0,1,.61,1.39V83.6a1.45,1.45,0,0,0,.38,1,1.29,1.29,0,0,0,1,.41,1.94,1.94,0,0,1,1.35.54,1.8,1.8,0,0,1,.15,2.55l0,0a2,2,0,0,1-1.26.67h-.42a4.54,4.54,0,0,1-1.95-.43A5.46,5.46,0,0,1,205,87.25a5.23,5.23,0,0,1-1.5-3.65V71.76a2.07,2.07,0,0,1,.62-1.27A1.94,1.94,0,0,1,205.45,69.93Z"/><path id="Trazado_214" data-name="Trazado 214" class="cls-1" d="M213.75,69.93a1.8,1.8,0,0,1,1.35.56,2.16,2.16,0,0,1,.61,1.39V83.6a1.43,1.43,0,0,0,.39,1,1.28,1.28,0,0,0,1,.41,1.92,1.92,0,0,1,1.34.54,1.82,1.82,0,0,1,.16,2.56l0,0a2,2,0,0,1-1.26.67h-.41a4.56,4.56,0,0,1-2-.43,5.73,5.73,0,0,1-1.62-1.14,5.26,5.26,0,0,1-1.09-1.66,5.06,5.06,0,0,1-.41-2V71.76a2.14,2.14,0,0,1,.63-1.27A1.85,1.85,0,0,1,213.75,69.93Z"/><path id="Trazado_215" data-name="Trazado 215" class="cls-1" d="M225.86,74.7a6.88,6.88,0,0,1,2.75.57,7.11,7.11,0,0,1,2.29,1.54,7.77,7.77,0,0,1,1.56,2.28A7.14,7.14,0,0,1,230.94,87a7.08,7.08,0,0,1-5.08,2.11,7.37,7.37,0,0,1-2.79-.54,6.84,6.84,0,0,1-2.29-1.5,7.09,7.09,0,0,1-2.1-5.11,7,7,0,0,1,2.06-5A7.34,7.34,0,0,1,223,75.34,7.73,7.73,0,0,1,225.86,74.7Zm0,3.89a3.28,3.28,0,0,0-1.28.25,3.39,3.39,0,0,0-1.05.7,3.27,3.27,0,0,0-1,2.37,3.17,3.17,0,0,0,.27,1.29,3.39,3.39,0,0,0,.73,1.07,3.66,3.66,0,0,0,1.05.73,3,3,0,0,0,1.28.26,3.2,3.2,0,0,0,1.29-.26,3.31,3.31,0,0,0,1-.73,3.51,3.51,0,0,0,.71-1.07,3.14,3.14,0,0,0,.27-1.29,3.41,3.41,0,0,0-1-2.31A3.31,3.31,0,0,0,225.86,78.59Z"/><path id="Trazado_216" data-name="Trazado 216" class="cls-1" d="M246.71,69.84a6.47,6.47,0,0,1,2.53.52,6.69,6.69,0,0,1,2.17,1.44,7.27,7.27,0,0,1,1.5,2.13,6.32,6.32,0,0,1,.56,2.64v5.49a6.22,6.22,0,0,1-.55,2.55,7.21,7.21,0,0,1-1.47,2.15,6.89,6.89,0,0,1-2.15,1.48,6.24,6.24,0,0,1-2.59.55h-4a2,2,0,0,1-1.41-.58,1.86,1.86,0,0,1-.6-1.44V71.85a2,2,0,0,1,.57-1.39,1.91,1.91,0,0,1,1.44-.62Zm-2.05,4V84.76h2.05a2.75,2.75,0,0,0,1.06-.21,2.59,2.59,0,0,0,.88-.58,2.66,2.66,0,0,0,.58-.86,2.52,2.52,0,0,0,.2-1V76.57a2.52,2.52,0,0,0-.2-1,2.66,2.66,0,0,0-.58-.86,2.59,2.59,0,0,0-.88-.58,2.78,2.78,0,0,0-1.06-.21Z"/><path id="Trazado_217" data-name="Trazado 217" class="cls-1" d="M257,70a1.72,1.72,0,0,1,1.32.58,1.94,1.94,0,0,1,0,2.7,1.79,1.79,0,0,1-1.32.58,2.1,2.1,0,0,1-1.41-.55,2,2,0,0,1-.55-1.47,1.8,1.8,0,0,1,.61-1.3A1.9,1.9,0,0,1,257,70Zm0,4.54a1.68,1.68,0,0,1,1.29.56,2.21,2.21,0,0,1,.58,1.36V87a1.94,1.94,0,0,1-.5,1.34,2,2,0,0,1-1.37.59,1.93,1.93,0,0,1-1.3-.47,2.13,2.13,0,0,1-.65-1.34V76.33a1.82,1.82,0,0,1,.62-1.27A2.06,2.06,0,0,1,257,74.53Z"/><path id="Trazado_218" data-name="Trazado 218" class="cls-1" d="M267.68,74.44a6.89,6.89,0,0,1,2.79.56,7.34,7.34,0,0,1,2.28,1.54A7.45,7.45,0,0,1,274,85.17a4.75,4.75,0,0,1,.86,2.94,4.9,4.9,0,0,1-.38,2,5.58,5.58,0,0,1-1.05,1.65,5.29,5.29,0,0,1-3.58,1.63h-7.53a1.64,1.64,0,0,1-1.26-.58,1.94,1.94,0,0,1-.52-1.35,2,2,0,0,1,1.9-2h7.2a1.28,1.28,0,0,0,1-.4,1.62,1.62,0,0,0,.45-1v0a6,6,0,0,1-1.35.53,7.52,7.52,0,0,1-2,.21,7.71,7.71,0,0,1-2.89-.53A6.64,6.64,0,0,1,261,84.51a7.76,7.76,0,0,1-.53-2.9,6.66,6.66,0,0,1,.59-2.75,7.59,7.59,0,0,1,1.59-2.29A7.77,7.77,0,0,1,265,75,6.54,6.54,0,0,1,267.68,74.44Zm0,3.85a3,3,0,0,0-1.25.28,3.73,3.73,0,0,0-1.05.75,3.51,3.51,0,0,0-.74,1.05,2.82,2.82,0,0,0-.29,1.24,3.19,3.19,0,0,0,.26,1.26,3.31,3.31,0,0,0,.7,1.07,3.39,3.39,0,0,0,1.05.74,3.14,3.14,0,0,0,1.32.29A3.36,3.36,0,0,0,269,84.7a3.21,3.21,0,0,0,1.07-.74,4,4,0,0,0,.7-1.07,3.28,3.28,0,0,0,.25-1.28,3.06,3.06,0,0,0-.28-1.29,3.48,3.48,0,0,0-1.81-1.76A3.07,3.07,0,0,0,267.68,78.29Z"/><path id="Trazado_219" data-name="Trazado 219" class="cls-1" d="M278.38,70a1.69,1.69,0,0,1,1.32.58,1.92,1.92,0,0,1,0,2.7,1.76,1.76,0,0,1-1.32.58A2.12,2.12,0,0,1,277,73.3a1.92,1.92,0,0,1-.54-1.47,1.79,1.79,0,0,1,.6-1.3A1.9,1.9,0,0,1,278.38,70Zm0,4.54a1.65,1.65,0,0,1,1.29.56,2.15,2.15,0,0,1,.58,1.36V87a1.85,1.85,0,0,1-.5,1.34,2,2,0,0,1-1.36.59,1.91,1.91,0,0,1-1.3-.47,2.1,2.1,0,0,1-.66-1.34V76.33a1.83,1.83,0,0,1,.63-1.27A2,2,0,0,1,278.38,74.53Z"/><path id="Trazado_220" data-name="Trazado 220" class="cls-1" d="M284,69.84a1.87,1.87,0,0,1,1.39.58,2.19,2.19,0,0,1,.63,1.43v2.26h5.69a1.82,1.82,0,0,1,1.4.59,2,2,0,0,1,.53,1.4,2,2,0,0,1-.6,1.38,1.77,1.77,0,0,1-1.33.6H286v3.38a3.2,3.2,0,0,0,.25,1.3,3.46,3.46,0,0,0,.7,1.08,3.23,3.23,0,0,0,1.05.74,3.35,3.35,0,0,0,1.32.27,3.69,3.69,0,0,0,1.32-.21,2.92,2.92,0,0,0,1-.62,2,2,0,0,1,1.37-.55,2,2,0,0,1,1.41.58,1.79,1.79,0,0,1,.45.6,2.06,2.06,0,0,1,.06,1.44,1.49,1.49,0,0,1-.39.62,7.55,7.55,0,0,1-2.28,1.55,6.6,6.6,0,0,1-2.67.53,8,8,0,0,1-2.9-.52,7.36,7.36,0,0,1-2.4-1.48,7.14,7.14,0,0,1-1.65-2.31,7.64,7.64,0,0,1-.63-3V71.71a1.71,1.71,0,0,1,.6-1.34A2.12,2.12,0,0,1,284,69.84Z"/><path id="Trazado_221" data-name="Trazado 221" class="cls-1" d="M304,74.46a7.12,7.12,0,0,1,2.51.77,7.4,7.4,0,0,1,2,1.59,7.51,7.51,0,0,1,1.34,2.2,7,7,0,0,1,.48,2.6v5.25a1.78,1.78,0,0,1-.59,1.36,1.89,1.89,0,0,1-2.68,0,2.15,2.15,0,0,1-.32-.41,1.3,1.3,0,0,0-.26.14l-.24.13a7.16,7.16,0,0,1-3.09.68,6.87,6.87,0,0,1-4-1.2,7.42,7.42,0,0,1-2.61-3.1,8.7,8.7,0,0,1-.46-1.39,6.77,6.77,0,0,1,0-3,8.39,8.39,0,0,1,.46-1.39,7.28,7.28,0,0,1,2.61-3.12,6.93,6.93,0,0,1,4-1.18h.44A2.68,2.68,0,0,1,304,74.46Zm-.86,10.47a3.27,3.27,0,0,0,2.34-1,3.25,3.25,0,0,0,.71-1,3.18,3.18,0,0,0,.27-1.32,3,3,0,0,0-.27-1.26,3.46,3.46,0,0,0-1.79-1.8,3.23,3.23,0,0,0-1.26-.26,3,3,0,0,0-1.25.26,3.66,3.66,0,0,0-1,.73,3.57,3.57,0,0,0-.73,1.07,3.19,3.19,0,0,0-.26,1.26,3.06,3.06,0,0,0,.28,1.29,3.54,3.54,0,0,0,1.79,1.76,3,3,0,0,0,1.22.28Z"/><path id="Trazado_222" data-name="Trazado 222" class="cls-1" d="M313.89,69.93a1.8,1.8,0,0,1,1.35.56,2.15,2.15,0,0,1,.6,1.39V83.6a1.41,1.41,0,0,0,.39,1,1.29,1.29,0,0,0,1,.41,2,2,0,0,1,1.35.54,1.81,1.81,0,0,1,.15,2.55l0,0a2,2,0,0,1-1.26.67H317a4.59,4.59,0,0,1-2-.43,5.54,5.54,0,0,1-1.61-1.14,5.28,5.28,0,0,1-1.1-1.66,5.05,5.05,0,0,1-.4-2V71.76a2.07,2.07,0,0,1,.62-1.27A1.92,1.92,0,0,1,313.89,69.93Z"/></g></g></g></g></svg>