<svg xmlns="http://www.w3.org/2000/svg" viewBox="0 0 294.67 60.39"><defs><style>.cls-1{fill:#ececec;}</style></defs><g id="Capa_2" data-name="Capa 2"><g id="Capa_1-2" data-name="Capa 1"><g id="Grupo_43" data-name="Grupo 43"><path id="Trazado_113" data-name="Trazado 113" class="cls-1" d="M41.1,49.52A6.15,6.15,0,0,1,43,54a6.4,6.4,0,0,1-1.89,4.58,6.24,6.24,0,0,1-4.49,1.8A6.61,6.61,0,0,1,32,58.59L12.85,39.13V54A6.13,6.13,0,0,1,11,58.45a6.56,6.56,0,0,1-9.12,0A6,6,0,0,1,0,54V6.35A6.06,6.06,0,0,1,1.89,1.91a6.4,6.4,0,0,1,11,4.44V21.18L32,1.91A6.48,6.48,0,0,1,36.61,0,6.34,6.34,0,0,1,41.1,10.88L21.82,30.16Z"/><path id="Trazado_114" data-name="Trazado 114" class="cls-1" d="M73.41,14.66a22.2,22.2,0,0,1,8,2.46,22.55,22.55,0,0,1,6.43,5.06,23.82,23.82,0,0,1,4.25,7,22.24,22.24,0,0,1,1.56,8.26V54.15a5.78,5.78,0,0,1-1.89,4.35,6.05,6.05,0,0,1-9.54-1.23,5.21,5.21,0,0,0-.85.43c-.25.15-.5.29-.76.42A25.36,25.36,0,0,1,76,59.72a22.71,22.71,0,0,1-5.2.57A21.82,21.82,0,0,1,58.1,56.46a23.52,23.52,0,0,1-8.31-9.87,24.85,24.85,0,0,1-1.47-4.44,21.83,21.83,0,0,1,0-9.45,25.12,25.12,0,0,1,1.47-4.44,23.12,23.12,0,0,1,8.31-9.92,22.09,22.09,0,0,1,12.66-3.78h1.37A10.86,10.86,0,0,1,73.41,14.66ZM70.67,48a10.52,10.52,0,0,0,4.11-.8A10.16,10.16,0,0,0,78.13,45a10.79,10.79,0,0,0,2.27-3.35,10.09,10.09,0,0,0,.85-4.2,10,10,0,0,0-.85-4,11,11,0,0,0-5.71-5.71,10,10,0,0,0-4-.85,9.39,9.39,0,0,0-4,.85A11.17,11.17,0,0,0,61,33.42a9.79,9.79,0,0,0-.84,4,9.58,9.58,0,0,0,.9,4.11,11.06,11.06,0,0,0,2.36,3.35,11.4,11.4,0,0,0,3.35,2.27,9.24,9.24,0,0,0,3.87.84Z"/><path id="Trazado_115" data-name="Trazado 115" class="cls-1" d="M121.5,14.29a23.3,23.3,0,0,1,8.69,1.65,22.41,22.41,0,0,1,7.27,4.63,23,23,0,0,1,5,7,20.47,20.47,0,0,1,1.89,8.78V53.87a5.84,5.84,0,0,1-1.75,4.25,6.08,6.08,0,0,1-4.3,1.89,6.35,6.35,0,0,1-4.39-1.65,5.41,5.41,0,0,1-1.84-4.21v-17a10.74,10.74,0,0,0-.8-4.11A9.94,9.94,0,0,0,129,29.69a11.63,11.63,0,0,0-3.4-2.27,10.48,10.48,0,0,0-4.2-.85,10.17,10.17,0,0,0-4,.8,11.23,11.23,0,0,0-3.31,2.13,10.08,10.08,0,0,0-2.27,3.21,9.7,9.7,0,0,0-.85,4v17.2a5.79,5.79,0,0,1-1.89,4.3A6,6,0,0,1,104.78,60a6.33,6.33,0,0,1-4.35-1.7,5.4,5.4,0,0,1-1.89-4.16v-17a24,24,0,0,1,1.84-8.88A23.07,23.07,0,0,1,105.2,21a22.52,22.52,0,0,1,16.3-6.71Z"/><path id="Trazado_116" data-name="Trazado 116" class="cls-1" d="M155.51,0a4.79,4.79,0,0,1,2.36.42,7.8,7.8,0,0,1,2,1.37,5.65,5.65,0,0,1,1.37,2,6.37,6.37,0,0,1,.47,2.4V17.12a22.1,22.1,0,0,1,6.85-2.22,23.73,23.73,0,0,1,7,0,24.14,24.14,0,0,1,6.8,2.08,21.85,21.85,0,0,1,11.1,11.52,22.79,22.79,0,0,1,1.65,8.93,21.52,21.52,0,0,1-1.84,8.88,24,24,0,0,1-5,7.28,23.33,23.33,0,0,1-7.27,4.91,21.81,21.81,0,0,1-8.79,1.79,21.19,21.19,0,0,1-8.69-1.84,24.24,24.24,0,0,1-12.38-12.23,21.15,21.15,0,0,1-1.89-8.79V5.78a4.82,4.82,0,0,1,.57-2.22,7.05,7.05,0,0,1,1.42-1.89A6.87,6.87,0,0,1,153.28.4,4.62,4.62,0,0,1,155.51,0Zm6.23,37.41a10.32,10.32,0,0,0,.85,4.11,10.54,10.54,0,0,0,2.32,3.36,11.7,11.7,0,0,0,3.35,2.26,9.64,9.64,0,0,0,4.06.85,9.9,9.9,0,0,0,4-.85,11.6,11.6,0,0,0,3.4-2.26,10.7,10.7,0,0,0,2.32-3.36,10.39,10.39,0,0,0,0-8.22A10.54,10.54,0,0,0,179.74,30a11.63,11.63,0,0,0-3.4-2.27,9.9,9.9,0,0,0-4-.85,9.36,9.36,0,0,0-4.06.9,12.1,12.1,0,0,0-3.35,2.36,11,11,0,0,0-2.32,3.4,9.84,9.84,0,0,0-.85,3.92Z"/><path id="Trazado_117" data-name="Trazado 117" class="cls-1" d="M223.72,14.66a22.55,22.55,0,0,1,14.4,7.52,23.85,23.85,0,0,1,4.26,7,22,22,0,0,1,1.55,8.26V54.15a5.74,5.74,0,0,1-1.88,4.35,6.06,6.06,0,0,1-9.55-1.23,5.65,5.65,0,0,0-.85.43q-.36.22-.75.42a24.62,24.62,0,0,1-4.63,1.6,22.77,22.77,0,0,1-5.2.57,21.82,21.82,0,0,1-12.66-3.83,23.59,23.59,0,0,1-8.31-9.87,24.85,24.85,0,0,1-1.47-4.44,21.83,21.83,0,0,1,0-9.45,25.12,25.12,0,0,1,1.47-4.44,23.18,23.18,0,0,1,8.31-9.92,22.14,22.14,0,0,1,12.66-3.78h1.37A11,11,0,0,1,223.72,14.66ZM221,48a10.56,10.56,0,0,0,4.11-.8A10,10,0,0,0,228.44,45a10.79,10.79,0,0,0,2.27-3.35,10.41,10.41,0,0,0,.85-4.2,10,10,0,0,0-.85-4A11,11,0,0,0,225,27.71a9.89,9.89,0,0,0-4-.85,9.39,9.39,0,0,0-4,.85,11.17,11.17,0,0,0-5.67,5.71,10,10,0,0,0-.85,4,9.73,9.73,0,0,0,.9,4.11,11.24,11.24,0,0,0,2.36,3.35,11.58,11.58,0,0,0,3.36,2.27A9.2,9.2,0,0,0,221,48Z"/><path id="Trazado_118" data-name="Trazado 118" class="cls-1" d="M271.8,14.29a23.35,23.35,0,0,1,8.7,1.65,22.41,22.41,0,0,1,7.27,4.63,23,23,0,0,1,5,7,20.47,20.47,0,0,1,1.89,8.78V53.87a5.88,5.88,0,0,1-1.75,4.25,6.08,6.08,0,0,1-4.3,1.89,6.38,6.38,0,0,1-4.4-1.65,5.41,5.41,0,0,1-1.84-4.21v-17a10.56,10.56,0,0,0-.8-4.11,9.94,9.94,0,0,0-2.27-3.35,11.63,11.63,0,0,0-3.4-2.27,10.48,10.48,0,0,0-4.2-.85,10.17,10.17,0,0,0-4,.8,11.23,11.23,0,0,0-3.31,2.13,10.08,10.08,0,0,0-2.27,3.21,9.7,9.7,0,0,0-.85,4v17.2a5.82,5.82,0,0,1-1.88,4.3A6.08,6.08,0,0,1,255.08,60a6.33,6.33,0,0,1-4.35-1.7,5.44,5.44,0,0,1-1.89-4.16v-17a24,24,0,0,1,1.85-8.88A22.87,22.87,0,0,1,255.5,21a22.54,22.54,0,0,1,16.3-6.71Z"/></g></g></g></svg>