<svg xmlns="http://www.w3.org/2000/svg" viewBox="0 0 253.34 305.22"><defs><style>.cls-1{fill:#ffdc72;}.cls-2{fill:#ffe8a3;}.cls-3{fill:#ffc107;}.cls-4{fill:#ffd34e;}.cls-5{fill:#eea320;}.cls-6{fill:#d2d5d8;}.cls-7{fill:#bfc4c8;}.cls-8{fill:#e3e5e7;}.cls-9{fill:#2d9d91;}.cls-10{fill:#35b9ab;}.cls-11{fill:#f162ff;}.cls-12{fill:#e90eff;}.cls-13{fill:#b600c9;}.cls-14{fill:#85d52d;}.cls-15{fill:#73ba25;}.cls-16{fill:#ffc098;}.cls-17{fill:#1c91c5;}.cls-18{fill:#2f81a2;}.cls-19{fill:#276b86;}.cls-20{fill:#e15361;}.cls-21{fill:#fe9551;}.cls-22{fill:#ffd6bb;}.cls-23{fill:#ca2333;}.cls-24{fill:#42474c;}.cls-25{fill:#636a72;}.cls-26{fill:#737c85;}.cls-27{fill:#99a0a7;}.cls-28{fill:#acb2b7;}.cls-29{fill:#868e96;}.cls-30{fill:#dc3545;}.cls-31{fill:#9b3d01;}.cls-32{fill:#e7727d;}.cls-33{fill:#323232;}.cls-34{fill:#21a4df;}.cls-35{fill:#a8e169;}.cls-36{fill:#258278;}.cls-37{fill:#47cabc;}.cls-38{fill:#f4f5f6;}.cls-39{fill:#fcaf17;}.cls-40{fill:#ea8024;}.cls-41{fill:#ffe596;}</style></defs><g id="Capa_2" data-name="Capa 2"><g id="Capa_1-2" data-name="Capa 1"><g id="g19229"><path id="path13619" class="cls-1" d="M169.64,28.57C33.78,25.49-92.23,258.31,93.38,290.68,220,313.85,266.83,322,250.06,215.55c-6.45-53.89-24.64-34.31-8.51-110.36,4.61-32.72-26.44-67.08-47.32-72.94a83.35,83.35,0,0,0-24.59-3.68Z"/><path id="path7070" class="cls-2" d="M94.75,49.72A200.81,200.81,0,0,0,49.32,86.78c8.6,42.46,25.17,102.34,27.78,104.65,4.45,3.93,84.92-33.2,84.92-33.2Z"/><ellipse id="path7030" class="cls-3" cx="68.09" cy="158.8" rx="13.97" ry="8.07"/><path id="path7042" class="cls-4" d="M65.83,158.21l-6.16,7a21.34,21.34,0,0,0,8.42,1.64c7.67,0,13.9-3.57,14-8-3.32-.27-11.11-.65-11.11-.65Z"/><path id="path7037" class="cls-5" d="M66.17,150.82a20,20,0,0,0-7.3,1.94l7,5.46Z"/><path id="path13641" class="cls-3" d="M178.87,212.89s-20,11.49-16.69,22.71c3,12.32,16.42,24.36,33.66,18.34,16.69-5.75,23.54-26,23.81-38.32C218.55,206.86,194.74,206.59,178.87,212.89Z"/><path id="path13639" class="cls-3" d="M179.54,172.33A69.87,69.87,0,0,0,165.8,174c-9.3,1.92-45.69,7.9-45.69,7.9s-53.41,6.58-60.77,11.22-26,3.42-19.44,17.65c5.16,7.64,13.28-3.79,14.51,1.41s5.2,57.06,5.75,63.9A14.84,14.84,0,0,0,62,282.29a155.89,155.89,0,0,0,14.92,4.77c.94-.16,1.93-.36,3-.63,15.06-3.83,45.43-20.25,46.8-46.53,2.47-15.87,32.3-18.61,39.69-21.62s35-33.11,28.73-40.5C191.54,173.62,185.66,172.33,179.54,172.33ZM49.46,203.47c.45,1.36,4.87,1.46,5.7,1.84a12.19,12.19,0,0,1,2.58,1.22c.31.38-.49.59-1.5.49s-7.58.76-8.25-.84C47.13,204.17,49.46,203.47,49.46,203.47Z"/><path id="rect13167-8" class="cls-3" d="M14.64,138q-.92,1.95-1.77,3.9l224,25.22h0c-.17-.65-.33-1.33-.48-2,0,0,0,0,0,0q-.22-1-.42-2.1v0Z"/><path id="path13380" class="cls-6" d="M72.68,176.62s5.48,14.23,5.2,14.92-2.39,6-6.7-8.49C69,176.76,70.22,176.28,72.68,176.62Z"/><path id="path13384" class="cls-6" d="M47.15,194.33s-15.38,2.42-6,14.9c5,4.84,11.13-5.71,17.13,2.13,2.52,3.78,2.81-.29,2-1.84s-3.77-5.8-13.16-2.22c-2.32.77-5.42-5.71,3.29-7.93C56.83,197.24,47.15,194.33,47.15,194.33Z"/><path id="path13592" class="cls-7" d="M49.48,195.2c-3,1.81-9.94,6.65-5.8,11.32,1.3,1.23,2.46,1.57,5.61.14l.27-.14a24.89,24.89,0,0,0-2.4.78c-2.32.77-5.42-5.71,3.29-7.94,4.23-1.41,1.42-3.14-1-4.16ZM54,207.44c-2.27,0-4.52,1.06-6.23,1.58a11.43,11.43,0,0,1-7-.52l-.13.06.48.67c5,4.84,11.13-5.71,17.13,2.13,1,1.54,1.68,1.77,2,1.39,0,0,0-.08,0-.13-1.76-4-4-5.15-6.3-5.18Z"/><path id="path13612" class="cls-7" d="M73.67,182.76l-1,4.73A18.22,18.22,0,0,0,74.87,192c1-.21,2.23-.53,2.23-.53Z"/><path id="path13370" class="cls-6" d="M58.48,172.76s-6.2,7.83-7,12.38-10.35,7-3.1,15.39c5.9,6.38,15.48,1.74,14.9-1,.39-1.55,19-9.48,7.26-26.22C61.86,166.85,58.48,172.76,58.48,172.76Z"/><path id="path13575" class="cls-7" d="M62.92,170.3a5.51,5.51,0,0,0-4.44,2.45s-1.41,1.8-3,4.14c.92,2,3.46,6.13,8.17,6.15,1.13,3.07,3.66,10.24,2.62,10.66-1.3.53-3.24.87-3.72,1.12s-10.21-.2-10.21-.2-1.36-.53-1.55.63a16.31,16.31,0,0,0,1.85,8c5.35,1.7,11.09-1.6,10.63-3.71.34-1.33,14-7.36,10.54-19.61a42.13,42.13,0,0,1-.13,6.74c0,1-.88,1.5-.78,1.06a15,15,0,0,0-2.9-6.14c-1.6-1.7-.19-2.23.68-2.42s1.35-1.5,1.35-1.5a.86.86,0,0,1,1,0,24.66,24.66,0,0,0-2.46-4.32c-3.26-2.43-5.78-3.12-7.65-3Z"/><path id="path13376" class="cls-6" d="M68.07,180.42s6.67,14.68,5.44,18c-.62.62-4.66.34-5.41-5s-7-12.7,0-13Z"/><path id="path13374" class="cls-6" d="M56.25,190.27s9.39,2.8,7.35,9.38c-.1,4.55,7.45,5.52,5.23,6.68s-12.19-.58-13.84-3S48.61,193.07,56.25,190.27Z"/><path id="path13602" class="cls-8" d="M54.46,195.45s-2.71,4.06.72,6.53c3,2.27,5.23,3.24,5.47,1.6s-1.79-2.08-1.26-3.92S59.54,192.11,54.46,195.45Z"/><path id="path13326" class="cls-9" d="M58.25,204.88s-24.06,23.22-10.9,43.54c4.26,14.13,8.51,29.42,16.64,29.8s44.32-1.16,52.83-32.32C113.53,234.68,106.56,202,83,200.23,77.73,199.85,67.6,198.11,58.25,204.88Z"/><path id="path13328" class="cls-10" d="M75.31,199.75a28,28,0,0,0-17.06,5.13s-24.06,23.22-10.9,43.54l.2.66c2.76,4.2,17.57,23.37,46.28,3C101,247.27,108,234.28,109,222.62,104,211.61,96,201.2,83,200.24c-2-.15-4.61-.49-7.65-.49Z"/><path id="path13530" class="cls-9" d="M98.2,206.94c-1.4.8-16.42,9.44-17.92,10.94-1.24,1.24-4.33,5.32-5.85,7.35-3.57.54-14.4,3.25-14.4,3.25s-3.08,1.44-1.3,4.18c.73,1.47,6.46.09,11.1-1.59L66,235.87s-6.77,3.76-3.7,6.77c2.6,2.6,6.16,2.06,10.13-.54s11.49-3.22,12.66-6,4.17-8.08,3.35-9.24,12.81-11.86,14.25-15a36.57,36.57,0,0,0-4.47-4.92Z"/><path id="path13324" class="cls-11" d="M142.4,78.17s16.6-11.85,30.73,7.11c6.78,11.42,35.91,103.45-33.6,135.47-10.67,2.47-28.46,3.83-30.65-11.77-2.19-15.32-10.67-31.47-6.29-38.58s16.41-4.66,23.26-24.09S131.59,80.35,142.4,78.17Z"/><path id="path13486" class="cls-12" d="M183.16,120.16c-.37,23.49-4.29,41-9.84,54.19C166,190,154.43,198.23,147.87,200.24c-7.86,2.33-9.14-15.3-9.14-15.3a120.47,120.47,0,0,0-17.51.62c.36-.37.63-.61.63-.61.56-4.09-9.27-11.57-17.21-16.9a9.6,9.6,0,0,0-2.06,2.34c-4.38,7.12,4.11,23.26,6.3,38.59,2.19,15.6,20,14.23,30.65,11.77C185,199.79,188.26,153.11,183.16,120.16Z"/><path id="path13322" class="cls-12" d="M145,76.74a17.81,17.81,0,0,0-2.56,1.43c-1.64.33-3,1.7-4.17,3.81-3,12.12-3.87,37.83-5.35,55.31-6.65,13-17.41,28.52-23.35,37.24a55.31,55.31,0,0,1-5.68,4.22,4.54,4.54,0,0,0-1.88,2.41c.43,2.21,1.06,4.61,1.76,7.11a13.42,13.42,0,0,1,6.67-3c6.16,2.64,17.15,4.74,29.44,1,36.52-10.15,26.79-44.62,25.68-81.59-3.1-14.4-10.13-17.67-15.66-17.8-1.09-4.27-2.64-8-4.9-10.17Z"/><path id="path13491" class="cls-13" d="M145,76.74a18.82,18.82,0,0,0-2.56,1.43c-1.64.33-3,1.69-4.17,3.81-4.41,18.11-4.28,66.61-8.26,72.58-5,7.55-22.64,22.26-26.13,24.2a4.5,4.5,0,0,0-1.87,2.4c.32,1.64.76,3.4,1.25,5.21l0,0c.14.52.31,1.08.45,1.61,0,.09,0,.18.08.27h0c1.81,6.45,4.13,13.65,5.14,20.72,1.48,10.55,10.1,13.33,18.83,13.27-.34-4.7-1.66-17-3.22-25.31a21.24,21.24,0,0,1,.92-11.76c-1.36.1-2.76.21-4.19.38.36-.38.63-.62.63-.62a2.81,2.81,0,0,0,0-.58c10.38-1.33,24.75-4.76,29.9-14,1.93-5.71.77-11.71.19-16.26s-1.74-7.54-1-9.87,5.41-10.64,4.64-16.15-2.32-13.84-2.9-17.52c-.53-3.37-.5-27-7.75-33.8Z"/><path id="path13318" class="cls-14" d="M69.7,218.09s-15,6.29-9.48,11.42c3.67,3.53,6-1.46,11.85-1.26s7.69-7.79,5-8.71a44.41,44.41,0,0,0-7.4-1.45Z"/><path id="path13517" class="cls-15" d="M78.15,223.08c-1.5,1.39-3.54,2.75-5.5,2.6-3.56-.28-7.32,3.32-10.85,2.63-2.19-.4-2.65-1.45-2.53-2.46a3.11,3.11,0,0,0,.94,3.66c3.68,3.53,6-1.46,11.86-1.26,3.5.11,5.55-2.7,6.08-5.17Z"/><path id="path13307" class="cls-16" d="M68.6,217l.09,2.29a5.16,5.16,0,0,0,4.72.49c.07-.59.17-1.24.31-1.94A6.77,6.77,0,0,1,68.6,217Z"/><path id="path13320" class="cls-14" d="M80.44,223S56.64,233.32,64,240.1c4.94,5.13,9.29-2.62,14.32-3.68s12.1-7.64,2.13-13.45Z"/><path id="path13512" class="cls-15" d="M80.44,223l-1.27.58a.53.53,0,0,0,0,.72.59.59,0,0,0,.17.1c1.75,1,3.73,7.55.49,7.89-10.94,1.74-8.71,4-12.14,6-2.58,1.45-4.26-.93-4.94-2.22a3.71,3.71,0,0,0,1.21,4.1c4.94,5.13,9.29-2.61,14.32-3.67s12.1-7.65,2.13-13.45Z"/><path id="path13305" class="cls-16" d="M74.84,223.72l0,3.7a5.42,5.42,0,0,0,6.58.15c0-.42.05-1,.11-1.64-2.58.93-4.23-1-6.73-2.2Z"/><path id="path13286" class="cls-17" d="M120,152.47s-34.48,12-36.26,14.5-20.25,48.58-17.52,49,5.2,4.79,12.32-.68,11-29.83,22.72-35.58,22.16-6.16,25.86-12.45,7.52-13,6.16-13.82-13.28-1-13.28-1Z"/><path id="path13440" class="cls-18" d="M120,152.47s-14.25,5-24.9,9.19c-.77,1.85-1.58,3.22-2.62,3.55-1.29.41-2.63-.22-4-.82-2.59,1.14-4.41,2.08-4.78,2.59a8.72,8.72,0,0,0-.54,1L93,169.54c-2.45,1.37-6.2,3.82-8,6.74C82.79,180,74.71,208.23,72,218c1.66.07,3.74-.55,6.55-2.71,7.12-5.47,11-29.83,22.71-35.58,1.58-.77,3.13-1.43,4.64-2-.34-1.69-4.72-5.14-7.72-7.33,7.74,1.17,15.55,2.28,16.17,2s8.27-5.11,15.36-9.6c2.64-4.67,4.62-8.72,3.57-9.34-1.36-.82-13.27-1-13.27-1Z"/><path id="path13280" class="cls-17" d="M120.24,158.63S94.92,169,90.82,174.09,69.61,221.71,74,223.35s6,6.16,12.45-1.5,13.13-36.68,20.39-38.59,40.8-2.51,40.8-20.17c.37-9.3.8-17.57-5.84-18.76C133.3,147.2,133.51,139.06,120.24,158.63Z"/><path id="path13456" class="cls-19" d="M125.19,152.61c-2.35,1.31-17.63,9.87-18.77,12.65-1.24,3,3.28,2.6,7.86.41s6.37-5.47,8.83-7.18c1.65-1.15,7.81-4,8.07-5.48-1.65-.2-3.85-.32-6-.4Z"/><path id="path13442" class="cls-18" d="M141.79,144.33c-8.49,2.87-8.28-5.27-21.55,14.3,0,0-15.19,6.24-23.94,11.41,8.41,1.29,17.34,2.58,18,2.33,1.25-.49,25.64-16.35,27.48-17s2.7,12.29-8.62,16.83c-12.1,4.26-28.06,4.07-36.38,16.36-3.53,5.38-14.59,28.5-18.63,37.1,2.11,1,4.26,1,8.28-3.78,6.43-7.66,13.13-36.67,20.39-38.59s40.8-2.51,40.8-20.16c.37-9.3.8-17.58-5.84-18.77Z"/><path id="path13265" class="cls-20" d="M121.31,106.38c-3.61,1.87-8.32,6.24-9.81,16.54-1.16,7.84-1,7.07-1,7.07a28.55,28.55,0,0,0,3.76,1c-4.53-7.8,2.94-19.29,7-24.62Z"/><path id="path13270" class="cls-16" d="M112.08,130.47c-.41,3.09-2.84,19.77-8.06,22.75.71,3.72,11.63-2.54,13.56-15.29h0a16.49,16.49,0,0,0-2.4-5.62,11.61,11.61,0,0,1-.89-1.31c-.83-.16-1.57-.35-2.21-.53Z"/><path id="path13414" class="cls-21" d="M115.64,133a27.41,27.41,0,0,1-5.26,16.3,3.57,3.57,0,0,0,0,2.37,23.15,23.15,0,0,0,7.17-13.76,17.18,17.18,0,0,0-1.94-4.91Z"/><path id="path7081" class="cls-22" d="M112.08,130.47c-.41,3.09-2.84,19.77-8.06,22.75a1.64,1.64,0,0,0,.14.39c10.29-8.14,9.23-21.42,9.09-22.84-.42-.1-.82-.2-1.17-.3Z"/><path id="path13261" class="cls-6" d="M123.69,103.47s-16.84,18.58-8.51,28.84c4.35,6.29,3,15.77,2.7,19.16s18.58,5.32,27.58-1.75c3.48-3.67,1.45-12.28,2.13-17s-2.81-22.06-3.68-23.8,2.81-13.35-20.22-5.41Z"/><path id="path13461" class="cls-7" d="M127.35,134.22a5.52,5.52,0,0,0-2.55.56c-3.6,1.82-6.25,1.45-8,.57a21,21,0,0,1,1.13,4.2,55.73,55.73,0,0,0,7.53-.42c4.45-.28,5.75,1.1,1.44,6.91-2.7,3.64-1.56,6.43.11,8.44,6,.22,13.66-1,18.48-4.75,3.09-3.26,1.84-10.39,2-15.27a5.22,5.22,0,0,0-4,.51C136.12,139.38,131.85,134.32,127.35,134.22Z"/><path id="path13426" class="cls-7" d="M136.44,100.73a20.66,20.66,0,0,0-2.22.13,26.76,26.76,0,0,0-9.53,3.37c-6.57,4.18-1.92,13.76-.69,13.62s1.92-3.7,4.38-2.12,5.47-1.64,8.35-1.44.55,2.88,3.83,4.93c1.68.94,3.66.21,5.49-1.08a66.64,66.64,0,0,0-2.13-9.25c-.66-1.3,1.25-8.16-7.47-8.16Z"/><path id="path13244" class="cls-7" d="M114.61,159.79l.29,8,13.24-8Z"/><path id="path13240" class="cls-20" d="M143.91,108.89s-8.9,10.26-5.71,17.9c3.58,9.39,2.52,9.2,2.52,9.2s7.84,2.22,11.22-4.94c1.36-3.87,2.9-19.35-8-22.16Z"/><path id="path13424" class="cls-23" d="M143.91,108.89a34,34,0,0,0-5.09,8.37,4.05,4.05,0,0,0,1.74,2c3.3,1.85,7.78-2.75,10-5.37A10.52,10.52,0,0,0,143.91,108.89Z"/><path id="path13232" class="cls-24" d="M132.23,61.57a2.81,2.81,0,0,0-.5,0c-31.75,4.1-13.07,41.32-10,50.56s4-4.24,4-4.24a1,1,0,0,0,.1-.18c-3-3.94-1.92-13-1.83-13.68A22.7,22.7,0,0,1,118,88.7c-5.2-7.87,3.08-13.82,3.08-13.82a8.61,8.61,0,0,1,3.39-1.49c1-.06,1.88.4,3,1.7,2.19,4.44,4.44,1.3,7.59,1.84s4.31,4.66.14,12.8a15.25,15.25,0,0,1-2.15,3.11.66.66,0,0,1-.11.24c-1.3,1.92.41,7,2.53,10.61a8.46,8.46,0,0,1,.41.79c4.68,1.13,2.62,12.35,6.27,12.55,19.43-3.62.7-55.4-9.94-55.45Z"/><path id="path7079" class="cls-25" d="M120.92,66.76s-7.73,4.39-6.82,16.08c.35,7.1,5.15,21.28,5.43,21.42s.62-1.39.07-2.85-8.28-19.48,1.45-30.47c3.34-3.48,1.67-5-.13-4.18Z"/><path id="path13225" class="cls-16" d="M121.13,74.88s-8.28,6-3.08,13.82c4.45,5.48,11.77,11.09,17.17,1,4.18-8.14,3-12.25-.13-12.8s-5.41,2.6-7.6-1.84c-2.19-2.6-3.63-1.85-6.36-.21Z"/><path id="path13227" class="cls-16" d="M133.07,92.84c-2.9,3.16-6.13,2.91-9.09,1.23-.11.9-1.87,15.43,5.43,15.5,6.22-.48,8.21-2.33,6.09-5.89S131.66,95,133,93.08a.86.86,0,0,0,.11-.24Z"/><path id="path13242" class="cls-25" d="M84.11,138.85l29.83,2.6,1,26.35-28.12-2.47Z"/><path id="path13252" class="cls-26" d="M114.9,167.8v1.45L86.78,166.4v-1.07Z"/><path id="path13254" class="cls-27" d="M114.9,167.8l13.24-8v1.06l-13.24,8.4Z"/><path id="path13256" class="cls-16" d="M149.33,134.43a10,10,0,0,1-7.8,1.71c-.2.18-11.4,10.38-17.06,20-2.23,2.9-8.18,2-8.33,7.21.2,3.1,4,1.91,5.16,1.21,4.5-3.4,4.53-.65,8.44-4.55,2.23-2.22,18.72-10.26,19.59-25.54v0Z"/><path id="path13333" class="cls-28" d="M168.51,158.34s-30.58,10.06-27.48,30c1.93,10.65,8.71,12.58,8.71,12.58s38.7,5.23,59-24.38c.26-9.59-5.81-27.29-40.25-18.19Z"/><path id="path13336" class="cls-6" d="M185,155.82a68.55,68.55,0,0,0-16.53,2.52s-30.58,10.06-27.48,30a23.54,23.54,0,0,0,1,3.77c6.95,2.52,19.13,4,38.49-2.48,17.26-6.14,23.92-16.46,25.89-23.53C203.45,160.53,197.23,155.68,185,155.82Z"/><path id="path13348" class="cls-28" d="M186.79,214.11s-17.51,6.16-14.78,19.3c2.19,9.57,19.84,6.7,28.19-.28,8.21-6.7,7.94-16,3.42-18.47s-8.07-2-16.83-.55Z"/><path id="path13573" class="cls-29" d="M187.86,224.14s-9.29,8.51-4.64,9.87c3.87,1.35,19.35.38,23.41-12.2,1.74-5.22-11.61-12-15.48-2.32C189.41,227.24,187.86,224.14,187.86,224.14Z"/><path id="path13341" class="cls-24" d="M192.18,192.1A63.81,63.81,0,0,1,171,200c1.43,3.3,13.43,30.72,16.71,29.8,3.48-1,5-2.51,5.42-4.06S192.36,196.55,192.18,192.1Z"/><path id="path13564" class="cls-28" d="M153.2,173.77s-4.89,2.13-3.48,2.42,4.45-1,5.22-.63,1.79,2.51,8.66,1.69c5.47-.63,8.08-1.21,7.69-3.48s-.67-3.68-4.21-2.47S153.87,172.94,153.2,173.77Z"/><path id="path13350" class="cls-30" d="M162,158.22a17.06,17.06,0,0,0-10.4,3.77c-.67.53-.9,1.74-.78,3.22-3.45.39-5.58,1.66-5.54,5,.06,2.46,2.51,6.5,6.69,4.79,1.61-1.09,1.79-.7,2.46-1.42a5.72,5.72,0,0,0,4.56,2.18c10.4,1.23,10.74-4,11.22-12.18-.31-2.93-3.66-5.34-8.2-5.4Zm-10.9,9.5c-.24,1,1.6,2.76,1.89,3.68s-3.48,2.7-4.69.19c-2.23-4.26,2.8-3.87,2.8-3.87Z"/><path id="path13554" class="cls-23" d="M152.23,164.55s-1.3-4.21,8.73-5.83c1.29-.07,7.94-.1,6.92,4.69C166.19,166.9,152.23,164.55,152.23,164.55Z"/><path id="path13359" class="cls-31" d="M152.23,164.59s.07-4.52,8.76-5.27c4.24-.14,7.87,2.4,6.7,5.2S155.38,171.36,152.23,164.59Z"/><path id="rect7032" class="cls-3" d="M65.83,41.33V158.21a2.93,2.93,0,0,0,2.63,1.35,2.59,2.59,0,0,0,2.48-1.35V41.33Z"/><path id="path13361" class="cls-6" d="M65.71,153.25c-1.55-.19-2.63,4.71-3.14,7.59a16.66,16.66,0,0,0-3.42,2.24A20.78,20.78,0,0,0,57.34,166c-5.06-.24-14.57-.35-11.83,2.6a27.79,27.79,0,0,0,10.36,5.22,8.5,8.5,0,0,0,4.25,5.52c7.45,4.65,13.35-7,13.26-9.38-.07-1.53-1.32-7.47-5-9.38-.17-2.78-1-6.65-2.46-7.27a.54.54,0,0,0-.21-.05Z"/><path id="path13386" class="cls-32" d="M56,167.19s-8.4,0-7.81.41,5.73,3.6,7.08,2.54,1.4-2.71.73-2.95Z"/><path id="path13388" class="cls-32" d="M65.54,154.42s-1.31,6.72-.1,6.63,1.93-.68,1.93-1.7S66.75,153.26,65.54,154.42Z"/><path id="path13390" class="cls-32" d="M69.36,170.72s-2.37,1.4-2.13,1.89,2.18,1,2.61.53.49-3-.48-2.42Z"/><path id="path13394" class="cls-21" d="M133.07,92.84c-2.9,3.16-6.13,2.91-9.09,1.23a39.55,39.55,0,0,0-.26,4.36c2.72.74,6.68-.05,7.13,3,.41,2.74-1,5.94-2.13,8.07a4,4,0,0,0,.69.06c6.22-.48,8.21-2.33,6.09-5.89S131.66,95,133,93.08a.74.74,0,0,0,.11-.24Z"/><path id="path13399" class="cls-21" d="M125.25,73.45c.74,7.51,4.55,4.69,8.12,5,3.37.28,2.41,7.67,1.62,11.71a3.81,3.81,0,0,0,.23-.4c4.18-8.14,3-12.24-.14-12.8s-5.4,2.6-7.59-1.84a4.38,4.38,0,0,0-2.24-1.64Z"/><path id="path13404" class="cls-33" d="M127,71.32c-3.62,0-7.84,3.34-9.13,7.13a14,14,0,0,1,3.24-3.57,8.57,8.57,0,0,1,3.38-1.49c1-.07,1.88.4,3,1.7,2.19,4.44,4.45,1.3,7.59,1.84s4.31,4.66.14,12.8a14.86,14.86,0,0,1-2.15,3.11.66.66,0,0,1-.11.24c-1.3,1.92.41,7,2.53,10.61a7.37,7.37,0,0,1,.41.79c4.63,1.11,2.68,12.07,6.14,12.53a15.52,15.52,0,0,0,.23-9c-1.45-4.65-6.29-8.81-4.16-15.39s5.61-15.48-.87-18.19c-2.9-.87-2.9,1.45-7.36-2.22a4.74,4.74,0,0,0-2.86-.9Zm-8.1,18.39c1.69,8.5,4.42,20.13,5.79,24.33a31.67,31.67,0,0,0,1-6.11,1,1,0,0,0,.1-.18c-3-3.94-1.92-13-1.83-13.68a20.91,20.91,0,0,1-5.06-4.36Z"/><path id="path13409" class="cls-24" d="M84.14,139.13l2.64,26.2,28,2.46Z"/><path id="path13416" class="cls-21" d="M149.33,134.43a8.23,8.23,0,0,1-2.24,1.26c-.39,2.66-1.64,8.85-5.3,12.4-4.17,4.11-11.43,10.19-14.23,11.84-2.46,1.43-8.53,3.66-10.19,5.25a5.41,5.41,0,0,0,3.93-.65c4.5-3.4,4.53-.65,8.44-4.55,2.23-2.22,18.72-10.25,19.59-25.54v0Z"/><path id="path13434" class="cls-23" d="M118.36,110.58c-2.72,3.06-8.08,10.57-5.48,20.1.44.11.91.22,1.41.31-3.56-6.12.28-14.51,4.07-20.41Z"/><path id="path13466" class="cls-8" d="M118.37,115.86s-7.64,7-2.32,15.1c4.25,3.87,9.77,2.9,9.87.38s-1.07-1.83-2.71-7.64S120.89,113.05,118.37,115.86Z"/><path id="path13468" class="cls-32" d="M150.3,116s-4.84,2.42-5.42,9.38,1.55,9.68,3.58,8,5.9-7.16,1.84-17.41Z"/><path id="path13470" class="cls-8" d="M120.44,143.57s-1.23,3.49-.14,5,4,4.86,2.47,4.65-3.22.69-3.42-1.57S117.77,142.21,120.44,143.57Z"/><path id="path13480" class="cls-22" d="M141.52,137.35s-13.35,12.25-16.77,19.36c-.68,2.6,3.15-.75,4.45-1.44S149.52,135.57,141.52,137.35Z"/><path id="path13482" class="cls-34" d="M92.82,175.08S74.94,209.39,74.26,222c.41,2.06,2.32,2.06,4-.82S97.79,177.37,96.43,176,95,174.28,92.82,175.08Z"/><path id="path13484" class="cls-34" d="M82.06,173.41s-14.64,36.12-14.78,40.23c1.09,1.78,4.65,2.46,5.06-1.78S87.39,170.94,82.06,173.41Z"/><path id="path13499" class="cls-21" d="M78.2,225.64c-.29,1-1.09,2.17-3.33,1.21v.58a5.4,5.4,0,0,0,6.58.14c0-.42.05-1,.11-1.64a4.06,4.06,0,0,1-3.37-.29Z"/><path id="path13501" class="cls-21" d="M73.72,217.8a6.22,6.22,0,0,1-2.39.13,2.13,2.13,0,0,1-2.68.47l0,.85a5.17,5.17,0,0,0,4.72.49c.08-.59.18-1.24.32-1.94Z"/><path id="path13522" class="cls-35" d="M67.81,219.73s-8.39,4.14-7.76,6.56c.43,1.4,2.34,1.4,3.55.24s2.2-1.81,4.31-3.82,2.61-3.17-.1-3Z"/><path id="path13524" class="cls-35" d="M73.06,227.77s-9.58,4.65-8.93,8.31c.34,1.91,2.57,1.37,3.53-.58s2.77-2.74,5.71-4.49.79-3.76-.31-3.25Z"/><path id="path13540" class="cls-36" d="M113.72,235.13c-.4,6-2.82,22-17.43,29.27C73.28,275,60,270.72,52.75,265c2.92,7.44,6.39,13,11.24,13.23,8.13.39,44.32-1.16,52.83-32.31C116.05,243.28,115.06,239.45,113.72,235.13Z"/><path id="path13545" class="cls-37" d="M70.7,246.07s-5.47,3.69-1.37,10.4c3,3.69,16.7-2.74,21.21-7.25s5.07-9.58,9.17-17.38,7.66-13.69,3.83-11.22-5.47,13.68-11,16-9.3,7-13.41,9.57-3.42-4-8.48-.13Z"/><path id="path13548" class="cls-37" d="M63.31,206s-19.7,13.28-16.15,27.78c3.42,13.14,5.61.82,7-5.33s3.56-7.39,7.39-11.36,4.65-13,1.78-11.09Z"/><path id="path13556" class="cls-23" d="M170.05,166.37c-.38,1.55-2.12,7.41-7.08,7.16s-8.28-.71-11.26-5.29c-.3-.69-.66-1.46-.66-1.46s-4.43-.15-4.57,3.1c0,1.83.7,4.66,4.67,3.77,1.85-.43,2.53-.73,2.68-1a4.28,4.28,0,0,1,.61,1h0a5.74,5.74,0,0,0,4.56,2.17c9.19,1.09,10.52-2.85,11-9.44Zm-19.14,1.34h.21c-.24,1,1.6,2.76,1.89,3.68s-3.48,2.7-4.69.19c-1.95-3.73,1.66-3.9,2.59-3.88Z"/><path id="path13566" class="cls-33" d="M192.18,192.1A63.81,63.81,0,0,1,171,200c.2.45.61,1.41,1.15,2.63,3.34-.33,9.17-1.24,13.88-3.92,1.46.4,4.09,27.33,1,30.94a.92.92,0,0,0,.72.15c3.48-1,5-2.51,5.42-4.06S192.36,196.55,192.18,192.1Z"/><path id="path13600" class="cls-8" d="M71.68,192.3S69,180.54,66.84,181.41C65.49,182,69.55,193.36,71.68,192.3Z"/><path id="path13604" class="cls-8" d="M55.09,180.69s-2.61,4.31-2.18,7.16S55,190.07,58,187.7s1.89-4.54.48-5.41-2.56-2.42-3.43-1.6Z"/><path id="path13606" class="cls-8" d="M59.34,166.22s1.85-4.45,6.09-3.62,1.16,2.12,1.16,4.31-1.3,2.19-3.21,1.57-5.61-.48-4-2.26Z"/><path id="path13608" class="cls-8" d="M43.14,196.32s-6.15,3-4.21,7.93c1.69,3.68,1.79-.34,2.18-1.89a6.31,6.31,0,0,1,2.51-3.67C44.78,197.91,44.3,195.54,43.14,196.32Z"/><path id="path13610" class="cls-8" d="M47.35,207.73s4.55-2.17,7.79-1.06c1.74.77-2.13.19-3.73.63S45.94,209.58,47.35,207.73Z"/><path id="path13617" class="cls-8" d="M50.93,188.58s-6.68,4.88-4.16,8.7c1.74,3.15,3.14,4.12,3.1,3.34s-1.55-3.43-1.36-4.45,2.9-3.34,3.34-5S52.33,187.85,50.93,188.58Z"/><path id="path13645" class="cls-38" d="M194.12,28.36h37.45V57.18H193.68Z"/><path id="path13647" class="cls-1" d="M198.07,32.41h30.16V52.69H197.68Z"/><path id="path13650" class="cls-39" d="M221.83,35.07l-6.68,11.2-7.3-7.3-10.1,13.72h30.48V41c-2.55-2.54-6.41-5.94-6.41-5.94Z"/><path id="path13652" class="cls-40" d="M194,28.36l-.45,28.82H232V28.36Zm1.87,1.9H230.2V55.82H195.42Z"/><path id="path13654" class="cls-38" d="M144.84,43.93h37.44V72.75H144.39Z"/><path id="path13656" class="cls-1" d="M148.79,48H179V68.26H148.4Z"/><path id="path13658" class="cls-39" d="M172.54,50.63l-6.67,11.21-7.3-7.3-10.1,13.72H179V56.58c-2.56-2.55-6.41-5.95-6.41-5.95Z"/><path id="path13660" class="cls-40" d="M144.68,43.93l-.45,28.82h38.51V43.93Zm1.86,1.89h34.38V71.39H146.14Z"/><path id="path7066" class="cls-5" d="M65.83,41.33V158.21s.31,1.4,1,1.35c.38,0,.75-.27,1-1.35V41.33Z"/><path id="path7068" class="cls-4" d="M69.66,41.33V158.21s.2,1.4.66,1.35c.24,0,.47-.27.62-1.35V41.33Z"/><path id="rect7047" class="cls-3" d="M53.73,3.15l-7.95,39S47.92,47.72,68,47.42c14-.39,21.9-3.34,23-5.31l-8.14-39Z"/><path id="path7060" class="cls-5" d="M53.73,3.15l-7.95,39s1,2.51,7.66,4.09l6-40.66-2.3-2.39Z"/><path id="path7053" class="cls-1" d="M53.72,3.15S54.41.2,68.09,0C79.4,0,82.85,3.15,82.85,3.15S79.31,6.49,67.7,6.3C58.35,6.2,55.89,4.62,53.72,3.15Z"/><path id="path7055" class="cls-41" d="M69.61,2C58.9,1.87,56.5,4.48,56.36,4.64c2.07.89,5.21,1.59,11.34,1.66,6.56.11,10.54-.91,12.77-1.82C79.65,3.64,75.59,2.11,69.61,2Z"/><path id="path7077" class="cls-22" d="M119.91,77s-4,4.28-3,6.81c.63,2.13,1.8,4.12,2.39,3.78s3.74-5.46,3.2-7.53-.17-5-2.59-3.06Z"/></g></g></g></svg>